<svg width="24" height="24" viewBox="0 0 24 24" fill="none" xmlns="http://www.w3.org/2000/svg">
<path d="M5 16.9999H4C3.46957 16.9999 2.96086 16.7892 2.58579 16.4141C2.21071 16.039 2 15.5303 2 14.9999V4.99988C2 4.46944 2.21071 3.96074 2.58579 3.58566C2.96086 3.21059 3.46957 2.99988 4 2.99988H20C20.5304 2.99988 21.0391 3.21059 21.4142 3.58566C21.7893 3.96074 22 4.46944 22 4.99988V14.9999C22 15.5303 21.7893 16.039 21.4142 16.4141C21.0391 16.7892 20.5304 16.9999 20 16.9999H19" stroke="#5157B4" stroke-width="2" stroke-linecap="round" stroke-linejoin="round"/>
<path d="M12 14.9999L17 20.9999H7L12 14.9999Z" stroke="#5157B4" stroke-width="2" stroke-linecap="round" stroke-linejoin="round"/>
</svg>
