<svg width="24" height="24" viewBox="0 0 24 24" fill="none" xmlns="http://www.w3.org/2000/svg">
<path d="M10.29 3.8599L1.81999 17.9999C1.64536 18.3023 1.55296 18.6452 1.55198 18.9944C1.551 19.3436 1.64148 19.687 1.81442 19.9904C1.98735 20.2938 2.23672 20.5466 2.5377 20.7238C2.83868 20.9009 3.18079 20.9961 3.52999 20.9999H20.47C20.8192 20.9961 21.1613 20.9009 21.4623 20.7238C21.7633 20.5466 22.0126 20.2938 22.1856 19.9904C22.3585 19.687 22.449 19.3436 22.448 18.9944C22.447 18.6452 22.3546 18.3023 22.18 17.9999L13.71 3.8599C13.5317 3.56601 13.2807 3.32302 12.9812 3.15438C12.6817 2.98575 12.3437 2.89716 12 2.89716C11.6563 2.89716 11.3183 2.98575 11.0188 3.15438C10.7193 3.32302 10.4683 3.56601 10.29 3.8599V3.8599Z" stroke="#5157B4" stroke-width="2" stroke-linecap="round" stroke-linejoin="round"/>
<path d="M12 8.99988V12.9999" stroke="#5157B4" stroke-width="2" stroke-linecap="round" stroke-linejoin="round"/>
<path d="M12 16.9999H12.01" stroke="#5157B4" stroke-width="2" stroke-linecap="round" stroke-linejoin="round"/>
</svg>
