<svg width="71" height="70" viewBox="0 0 71 70" fill="none" xmlns="http://www.w3.org/2000/svg">
<path d="M0 35C0 15.67 15.67 0 35 0H66C68.2091 0 70 1.79086 70 4V35C70 54.33 54.33 70 35 70C15.67 70 0 54.33 0 35Z" fill="#F7F7F7"/>
<path d="M26.2678 45.2092C25.7734 45.2092 25.3359 44.8767 25.2112 44.391C21.8425 31.4826 28.1053 22.4526 43.8225 17.5504C44.1047 17.4651 44.4087 17.4913 44.6712 17.6335C44.9316 17.7735 45.1219 18.0141 45.2028 18.3007C46.1872 21.8182 46.4519 25.1913 45.9925 28.3238C45.9466 28.6279 45.7781 28.9013 45.5222 29.072L40.2262 32.6485L43.0066 34.0835C43.2756 34.2213 43.4747 34.4663 43.5578 34.7595C43.6387 35.0504 43.5972 35.3632 43.4397 35.6235C40.0031 41.287 33.7687 44.7804 26.3334 45.2092C26.3116 45.2092 26.2897 45.2092 26.2678 45.2092Z" fill="#5157B4"/>
<path opacity="0.5" d="M25.8237 51.3449C25.6575 50.5574 26.1606 49.7831 26.9481 49.6168L33.2262 48.2868C34.4753 48.0265 35.9081 48.0943 37.0675 48.4771L39.9856 49.4418C40.3378 49.5578 41.2762 49.6606 41.9281 49.4528L45.3341 48.394C46.9156 47.8996 49.0134 48.1468 50.1925 48.9803L51.4263 49.8553C52.0825 50.3212 52.2378 51.2334 51.7741 51.8896C51.3081 52.5481 50.3981 52.7012 49.7419 52.2374L48.5081 51.3624C48.1669 51.1174 46.9944 50.9315 46.2025 51.1809L42.7966 52.2396C41.6525 52.5962 40.1956 52.5853 39.0691 52.2112L36.1553 51.2465C35.4816 51.0234 34.5803 50.9862 33.8322 51.1415L27.5562 52.4715C26.7644 52.6334 25.99 52.1324 25.8237 51.3449Z" fill="#5157B4"/>
<path d="M20.5585 52.2222C19.9066 51.7497 19.7622 50.8375 20.2369 50.1856L31.9028 34.1447C32.3753 33.4928 33.2875 33.3506 33.9394 33.8231C34.5913 34.2956 34.7356 35.2078 34.261 35.8597L22.595 51.9006C22.1247 52.5503 21.2147 52.6968 20.5585 52.2222Z" fill="#5157B4"/>
</svg>
