<svg width="60" height="62" viewBox="0 0 60 62" fill="none" xmlns="http://www.w3.org/2000/svg">
<g clip-path="url(#clip0)">
<path opacity="0.2" d="M9.37502 46.9524V26.9263C9.37502 20.3032 14.6953 14.9346 21.1676 14.9346H14.3707C11.2627 14.9346 8.28201 16.198 6.08432 18.4469C3.88663 20.6957 2.65198 23.7459 2.65198 26.9263V46.9524C2.65198 50.1328 3.88663 53.1829 6.08432 55.4318C8.28201 57.6807 11.2627 58.9441 14.3707 58.9441H21.1676C14.6953 58.9441 9.37502 53.5754 9.37502 46.9524Z" fill="#5157B4"/>
<path d="M29.1797 61.3976H14.0625C10.3341 61.3935 6.75962 59.8761 4.12326 57.1783C1.48691 54.4805 0.00403252 50.8228 0 47.0076L0 27.3412C0.00403252 23.526 1.48691 19.8682 4.12326 17.1705C6.75962 14.4727 10.3341 12.9553 14.0625 12.9512H45.9375C49.6659 12.9553 53.2404 14.4727 55.8767 17.1705C58.5131 19.8682 59.996 23.526 60 27.3412V36.9346C60 37.5706 59.7531 38.1807 59.3135 38.6304C58.874 39.0802 58.2779 39.3329 57.6562 39.3329C57.0346 39.3329 56.4385 39.0802 55.999 38.6304C55.5594 38.1807 55.3125 37.5706 55.3125 36.9346V27.3412C55.3097 24.7978 54.3211 22.3593 52.5635 20.5608C50.806 18.7623 48.423 17.7507 45.9375 17.7478H14.0625C11.577 17.7507 9.19401 18.7623 7.43646 20.5608C5.67891 22.3593 4.69029 24.7978 4.6875 27.3412V47.0076C4.69029 49.551 5.67891 51.9895 7.43646 53.7879C9.19401 55.5864 11.577 56.5981 14.0625 56.6009H29.1797C29.8013 56.6009 30.3974 56.8536 30.837 57.3034C31.2765 57.7532 31.5234 58.3632 31.5234 58.9993C31.5234 59.6353 31.2765 60.2454 30.837 60.6952C30.3974 61.1449 29.8013 61.3976 29.1797 61.3976ZM15.3516 24.2234C14.7721 24.2234 14.2057 24.3992 13.7239 24.7286C13.2421 25.058 12.8666 25.5262 12.6449 26.074C12.4231 26.6218 12.3651 27.2246 12.4782 27.8062C12.5912 28.3877 12.8702 28.9219 13.28 29.3411C13.6897 29.7604 14.2117 30.0459 14.78 30.1616C15.3483 30.2773 15.9374 30.2179 16.4727 29.991C17.008 29.7641 17.4656 29.3798 17.7875 28.8868C18.1094 28.3938 18.2812 27.8142 18.2812 27.2213C18.2812 26.4262 17.9726 25.6637 17.4232 25.1014C16.8737 24.5392 16.1286 24.2234 15.3516 24.2234ZM15.3516 34.5362C14.7721 34.5362 14.2057 34.712 13.7239 35.0415C13.2421 35.3709 12.8666 35.8391 12.6449 36.3869C12.4231 36.9347 12.3651 37.5375 12.4782 38.119C12.5912 38.7005 12.8702 39.2347 13.28 39.654C13.6897 40.0733 14.2117 40.3588 14.78 40.4745C15.3483 40.5901 15.9374 40.5308 16.4727 40.3039C17.008 40.077 17.4656 39.6927 17.7875 39.1997C18.1094 38.7067 18.2812 38.1271 18.2812 37.5341C18.2812 36.739 17.9726 35.9765 17.4232 35.4143C16.8737 34.8521 16.1286 34.5362 15.3516 34.5362ZM15.3516 44.8491C14.7721 44.8491 14.2057 45.0249 13.7239 45.3543C13.2421 45.6837 12.8666 46.1519 12.6449 46.6997C12.4231 47.2475 12.3651 47.8503 12.4782 48.4319C12.5912 49.0134 12.8702 49.5476 13.28 49.9668C13.6897 50.3861 14.2117 50.6716 14.78 50.7873C15.3483 50.903 15.9374 50.8436 16.4727 50.6167C17.008 50.3898 17.4656 50.0056 17.7875 49.5126C18.1094 49.0195 18.2812 48.4399 18.2812 47.847C18.2812 47.0519 17.9726 46.2894 17.4232 45.7271C16.8737 45.1649 16.1286 44.8491 15.3516 44.8491ZM25.4297 34.5362C24.8503 34.5362 24.2838 34.712 23.802 35.0415C23.3203 35.3709 22.9447 35.8391 22.723 36.3869C22.5013 36.9347 22.4433 37.5375 22.5563 38.119C22.6693 38.7005 22.9484 39.2347 23.3581 39.654C23.7678 40.0733 24.2898 40.3588 24.8581 40.4745C25.4264 40.5901 26.0155 40.5308 26.5508 40.3039C27.0862 40.077 27.5437 39.6927 27.8656 39.1997C28.1876 38.7067 28.3594 38.1271 28.3594 37.5341C28.3594 36.739 28.0507 35.9765 27.5013 35.4143C26.9519 34.8521 26.2067 34.5362 25.4297 34.5362ZM25.4297 44.8491C24.8503 44.8491 24.2838 45.0249 23.802 45.3543C23.3203 45.6837 22.9447 46.1519 22.723 46.6997C22.5013 47.2475 22.4433 47.8503 22.5563 48.4319C22.6693 49.0134 22.9484 49.5476 23.3581 49.9668C23.7678 50.3861 24.2898 50.6716 24.8581 50.7873C25.4264 50.903 26.0155 50.8436 26.5508 50.6167C27.0862 50.3898 27.5437 50.0056 27.8656 49.5126C28.1876 49.0195 28.3594 48.4399 28.3594 47.847C28.3594 47.0519 28.0507 46.2894 27.5013 45.7271C26.9519 45.1649 26.2067 44.8491 25.4297 44.8491ZM35.5078 34.5362C34.9284 34.5362 34.3619 34.712 33.8802 35.0415C33.3984 35.3709 33.0229 35.8391 32.8011 36.3869C32.5794 36.9347 32.5214 37.5375 32.6344 38.119C32.7475 38.7005 33.0265 39.2347 33.4362 39.654C33.8459 40.0733 34.368 40.3588 34.9363 40.4745C35.5046 40.5901 36.0936 40.5308 36.629 40.3039C37.1643 40.077 37.6218 39.6927 37.9438 39.1997C38.2657 38.7067 38.4375 38.1271 38.4375 37.5341C38.4375 36.739 38.1288 35.9765 37.5794 35.4143C37.03 34.8521 36.2848 34.5362 35.5078 34.5362ZM45.5859 34.5362C45.0065 34.5362 44.4401 34.712 43.9583 35.0415C43.4765 35.3709 43.101 35.8391 42.8793 36.3869C42.6575 36.9347 42.5995 37.5375 42.7125 38.119C42.8256 38.7005 43.1046 39.2347 43.5143 39.654C43.9241 40.0733 44.4461 40.3588 45.0144 40.4745C45.5827 40.5901 46.1717 40.5308 46.7071 40.3039C47.2424 40.077 47.7 39.6927 48.0219 39.1997C48.3438 38.7067 48.5156 38.1271 48.5156 37.5341C48.5156 36.739 48.207 35.9765 47.6575 35.4143C47.1081 34.8521 46.3629 34.5362 45.5859 34.5362Z" fill="#5157B4"/>
<path d="M21.3281 9.59335C20.7065 9.59335 20.1104 9.34067 19.6708 8.8909C19.2313 8.44112 18.9844 7.83109 18.9844 7.19501C18.9844 6.55894 18.7375 5.94891 18.2979 5.49913C17.8584 5.04936 17.2622 4.79668 16.6406 4.79668C16.019 4.79668 15.4229 5.04936 14.9833 5.49913C14.5438 5.94891 14.2969 6.55894 14.2969 7.19501C14.2969 7.83109 14.0499 8.44112 13.6104 8.8909C13.1709 9.34067 12.5747 9.59335 11.9531 9.59335C11.3315 9.59335 10.7354 9.34067 10.2958 8.8909C9.85631 8.44112 9.60938 7.83109 9.60938 7.19501C9.60937 5.28678 10.3502 3.4567 11.6688 2.10737C12.9874 0.758044 14.7758 0 16.6406 0C18.5054 0 20.2939 0.758044 21.6125 2.10737C22.9311 3.4567 23.6719 5.28678 23.6719 7.19501C23.6719 7.50997 23.6113 7.82184 23.4935 8.11282C23.3757 8.4038 23.2031 8.66819 22.9854 8.8909C22.7678 9.1136 22.5094 9.29026 22.225 9.41079C21.9407 9.53132 21.6359 9.59335 21.3281 9.59335ZM50.625 7.19501C50.625 5.28678 49.8842 3.4567 48.5656 2.10737C47.247 0.758044 45.4586 0 43.5938 0C41.729 0 39.9405 0.758044 38.6219 2.10737C37.3033 3.4567 36.5625 5.28678 36.5625 7.19501C36.5625 7.83109 36.8094 8.44112 37.249 8.8909C37.6885 9.34067 38.2847 9.59335 38.9063 9.59335C39.5279 9.59335 40.124 9.34067 40.5636 8.8909C41.0031 8.44112 41.25 7.83109 41.25 7.19501C41.25 6.55894 41.4969 5.94891 41.9365 5.49913C42.376 5.04936 42.9722 4.79668 43.5938 4.79668C44.2154 4.79668 44.8115 5.04936 45.2511 5.49913C45.6906 5.94891 45.9375 6.55894 45.9375 7.19501C45.9375 7.83109 46.1844 8.44112 46.624 8.8909C47.0635 9.34067 47.6597 9.59335 48.2813 9.59335C48.9029 9.59335 49.499 9.34067 49.9386 8.8909C50.3781 8.44112 50.625 7.83109 50.625 7.19501ZM45.586 24.2232C45.0065 24.2232 44.4401 24.399 43.9583 24.7285C43.4765 25.0579 43.101 25.5261 42.8793 26.0739C42.6575 26.6217 42.5995 27.2245 42.7126 27.806C42.8256 28.3875 43.1046 28.9217 43.5144 29.341C43.9241 29.7603 44.4461 30.0458 45.0144 30.1615C45.5827 30.2771 46.1718 30.2178 46.7071 29.9909C47.2424 29.764 47.7 29.3797 48.0219 28.8867C48.3438 28.3937 48.5156 27.8141 48.5156 27.2211C48.5156 26.426 48.207 25.6635 47.6576 25.1013C47.1081 24.5391 46.363 24.2232 45.586 24.2232ZM35.5078 24.2232C34.9284 24.2232 34.362 24.399 33.8802 24.7285C33.3984 25.0579 33.0229 25.5261 32.8011 26.0739C32.5794 26.6217 32.5214 27.2245 32.6344 27.806C32.7475 28.3875 33.0265 28.9217 33.4362 29.341C33.8459 29.7603 34.368 30.0458 34.9363 30.1615C35.5046 30.2771 36.0936 30.2178 36.629 29.9909C37.1643 29.764 37.6219 29.3797 37.9438 28.8867C38.2657 28.3937 38.4375 27.8141 38.4375 27.2211C38.4375 26.426 38.1289 25.6635 37.5794 25.1013C37.03 24.5391 36.2848 24.2232 35.5078 24.2232ZM25.4297 24.2232C24.8503 24.2232 24.2838 24.399 23.802 24.7285C23.3203 25.0579 22.9448 25.5261 22.723 26.0739C22.5013 26.6217 22.4433 27.2245 22.5563 27.806C22.6693 28.3875 22.9484 28.9217 23.3581 29.341C23.7678 29.7603 24.2898 30.0458 24.8581 30.1615C25.4264 30.2771 26.0155 30.2178 26.5508 29.9909C27.0862 29.764 27.5437 29.3797 27.8656 28.8867C28.1876 28.3937 28.3594 27.8141 28.3594 27.2211C28.3594 26.426 28.0507 25.6635 27.5013 25.1013C26.9519 24.5391 26.2067 24.2232 25.4297 24.2232ZM48.6492 59.1958L59.3133 48.2186C59.5365 47.9967 59.7142 47.7315 59.8362 47.4386C59.9581 47.1456 60.0219 46.8308 60.0236 46.5124C60.0254 46.194 59.9652 45.8784 59.8466 45.584C59.7279 45.2897 59.5532 45.0224 59.3325 44.7979C59.1119 44.5734 58.8497 44.3961 58.5614 44.2764C58.2731 44.1566 57.9643 44.0968 57.6532 44.1004C57.3421 44.104 57.0347 44.171 56.7491 44.2975C56.4636 44.424 56.2055 44.6073 55.9899 44.8369L45.3188 55.8153C45.0794 56.0642 44.794 56.2619 44.4793 56.3968C44.1645 56.5318 43.8266 56.6013 43.4854 56.6013C43.1441 56.6013 42.8062 56.5318 42.4915 56.3968C42.1767 56.2619 41.8913 56.0642 41.652 55.8153L35.9942 49.9862C35.5496 49.5713 34.9662 49.3472 34.3646 49.3604C33.7631 49.3735 33.1895 49.6229 32.7627 50.0569C32.3359 50.4908 32.0886 51.0761 32.0719 51.6916C32.0552 52.3071 32.2704 52.9055 32.6731 53.363L38.3297 59.191C39.0047 59.8891 39.8083 60.4433 40.6939 60.8215C41.5796 61.1997 42.5298 61.3944 43.4895 61.3944C44.4492 61.3944 45.3993 61.1997 46.285 60.8215C47.1707 60.4433 47.9742 59.8891 48.6492 59.191V59.1958Z" fill="#FFBB00"/>
</g>
<defs>
<clipPath id="clip0">
<rect width="60" height="61.3975" fill="white"/>
</clipPath>
</defs>
</svg>
