<svg width="24" height="24" viewBox="0 0 24 24" fill="none" xmlns="http://www.w3.org/2000/svg">
<path d="M23 18.9999C23 19.5303 22.7893 20.039 22.4142 20.4141C22.0391 20.7892 21.5304 20.9999 21 20.9999H3C2.46957 20.9999 1.96086 20.7892 1.58579 20.4141C1.21071 20.039 1 19.5303 1 18.9999V7.99988C1 7.46944 1.21071 6.96074 1.58579 6.58566C1.96086 6.21059 2.46957 5.99988 3 5.99988H7L9 2.99988H15L17 5.99988H21C21.5304 5.99988 22.0391 6.21059 22.4142 6.58566C22.7893 6.96074 23 7.46944 23 7.99988V18.9999Z" stroke="#5157B4" stroke-width="2" stroke-linecap="round" stroke-linejoin="round"/>
<path d="M12 16.9999C14.2091 16.9999 16 15.209 16 12.9999C16 10.7907 14.2091 8.99988 12 8.99988C9.79086 8.99988 8 10.7907 8 12.9999C8 15.209 9.79086 16.9999 12 16.9999Z" stroke="#5157B4" stroke-width="2" stroke-linecap="round" stroke-linejoin="round"/>
</svg>
