<svg width="24" height="24" viewBox="0 0 24 24" fill="none" xmlns="http://www.w3.org/2000/svg">
<path d="M18 7.99988H19C20.0609 7.99988 21.0783 8.42131 21.8284 9.17145C22.5786 9.9216 23 10.939 23 11.9999C23 13.0607 22.5786 14.0782 21.8284 14.8283C21.0783 15.5785 20.0609 15.9999 19 15.9999H18" stroke="#5157B4" stroke-width="2" stroke-linecap="round" stroke-linejoin="round"/>
<path d="M2 7.99988H18V16.9999C18 18.0607 17.5786 19.0782 16.8284 19.8283C16.0783 20.5784 15.0609 20.9999 14 20.9999H6C4.93913 20.9999 3.92172 20.5784 3.17157 19.8283C2.42143 19.0782 2 18.0607 2 16.9999V7.99988Z" stroke="#5157B4" stroke-width="2" stroke-linecap="round" stroke-linejoin="round"/>
<path d="M6 0.999878V3.99988" stroke="#5157B4" stroke-width="2" stroke-linecap="round" stroke-linejoin="round"/>
<path d="M10 0.999878V3.99988" stroke="#5157B4" stroke-width="2" stroke-linecap="round" stroke-linejoin="round"/>
<path d="M14 0.999878V3.99988" stroke="#5157B4" stroke-width="2" stroke-linecap="round" stroke-linejoin="round"/>
</svg>
