<svg width="24" height="24" viewBox="0 0 24 24" fill="none" xmlns="http://www.w3.org/2000/svg">
<path d="M20 11.9999V21.9999H4V11.9999" stroke="#5157B4" stroke-width="2" stroke-linecap="round" stroke-linejoin="round"/>
<path d="M22 6.99988H2V11.9999H22V6.99988Z" stroke="#5157B4" stroke-width="2" stroke-linecap="round" stroke-linejoin="round"/>
<path d="M12 21.9999V6.99988" stroke="#5157B4" stroke-width="2" stroke-linecap="round" stroke-linejoin="round"/>
<path d="M12 6.99988H7.5C6.83696 6.99988 6.20107 6.73649 5.73223 6.26764C5.26339 5.7988 5 5.16292 5 4.49988C5 3.83684 5.26339 3.20095 5.73223 2.73211C6.20107 2.26327 6.83696 1.99988 7.5 1.99988C11 1.99988 12 6.99988 12 6.99988Z" stroke="#5157B4" stroke-width="2" stroke-linecap="round" stroke-linejoin="round"/>
<path d="M12 6.99988H16.5C17.163 6.99988 17.7989 6.73649 18.2678 6.26764C18.7366 5.7988 19 5.16292 19 4.49988C19 3.83684 18.7366 3.20095 18.2678 2.73211C17.7989 2.26327 17.163 1.99988 16.5 1.99988C13 1.99988 12 6.99988 12 6.99988Z" stroke="#5157B4" stroke-width="2" stroke-linecap="round" stroke-linejoin="round"/>
</svg>
