<svg width="17" height="18" viewBox="0 0 17 18" fill="none" xmlns="http://www.w3.org/2000/svg">
<g clip-path="url(#clip0)">
<path d="M14.6814 4.17826C14.3215 3.8163 13.8943 3.52917 13.4241 3.33328C12.9539 3.13738 12.4499 3.03655 11.9409 3.03655C11.432 3.03655 10.928 3.13738 10.4578 3.33328C9.98754 3.52917 9.56032 3.8163 9.20051 4.17826L8.45376 4.92909L7.70701 4.17826C6.9802 3.44748 5.99444 3.03693 4.96658 3.03693C3.93872 3.03693 2.95296 3.44748 2.22616 4.17826C1.49935 4.90904 1.09103 5.90019 1.09103 6.93367C1.09103 7.96716 1.49935 8.95831 2.22616 9.68909L2.9729 10.4399L8.45376 15.9508L13.9346 10.4399L14.6814 9.68909C15.0413 9.32731 15.3269 8.89775 15.5217 8.42497C15.7166 7.95218 15.8169 7.44544 15.8169 6.93367C15.8169 6.42191 15.7166 5.91516 15.5217 5.44238C15.3269 4.9696 15.0413 4.54004 14.6814 4.17826V4.17826Z" stroke="#6C70B4" stroke-width="2" stroke-linecap="round" stroke-linejoin="round"/>
</g>
<defs>
<clipPath id="clip0">
<rect width="16.9075" height="17" fill="white" transform="translate(0 0.912842)"/>
</clipPath>
</defs>
</svg>
