<svg width="70" height="70" viewBox="0 0 70 70" fill="none" xmlns="http://www.w3.org/2000/svg">
<path d="M0 35C0 15.67 15.67 0 35 0H66C68.2091 0 70 1.79086 70 4V35C70 54.33 54.33 70 35 70C15.67 70 0 54.33 0 35Z" fill="#F7F7F7"/>
<path d="M48.0222 29.0785C46.2569 28.7132 44.9313 27.1819 44.8569 25.316C44.2291 26.716 42.8291 27.7069 41.1972 27.7069H39.0097C38.3819 27.7069 37.8 27.5472 37.275 27.2978C36.925 27.8513 36.4437 28.3325 35.8466 28.6541C34.7419 29.2907 33.3506 29.365 32.0841 28.6978C30.8175 29.365 29.4262 29.2907 28.3216 28.6541C27.3744 28.1444 26.7028 27.2825 26.4119 26.2478C26.1056 25.2263 26.2369 24.1478 26.7619 23.2138L27.4903 21.875L26.7619 20.5472C26.7466 20.5188 26.7334 20.4882 26.7181 20.4597C23.7716 22.866 21.875 26.5278 21.875 30.625C21.875 31.5285 21.6125 32.4188 21.1312 33.191L17.7341 38.5875C17.5722 38.8347 17.5 39.0972 17.5 39.375C17.5 40.191 18.1409 40.8341 18.9591 40.8341H21.875V45.2091C21.875 46.8125 23.1875 48.125 24.7909 48.125C25.1125 48.125 25.4187 48.0813 25.6506 47.9938L29.1659 46.9154V51.7716C29.1659 52.1807 29.4875 52.5 29.8944 52.5H43.0194C43.4284 52.5 43.75 52.1785 43.75 51.7716V44.4369C43.75 42.1904 44.4347 40.0182 45.7341 38.1654C47.2937 35.9472 48.125 33.3375 48.125 30.625C48.125 30.1 48.0966 29.5903 48.0222 29.0785Z" fill="#5157B4"/>
<path opacity="0.5" d="M32.9503 25.6878L29.3037 19.1253C29.0106 18.5959 29.1987 17.9309 29.7281 17.6378C30.2575 17.3447 30.9225 17.535 31.2156 18.0622L34.8622 24.6247C35.1553 25.1541 34.9672 25.8191 34.4378 26.1122C33.9128 26.4031 33.2456 26.2194 32.9503 25.6878Z" fill="#5157B4"/>
<path opacity="0.5" d="M29.7281 26.1122C29.1987 25.819 29.0106 25.154 29.3037 24.6247L32.9503 18.0622C33.2412 17.5328 33.9084 17.3425 34.4378 17.6378C34.9672 17.9309 35.1553 18.5959 34.8622 19.1253L31.2156 25.6878C30.9225 26.2193 30.2531 26.4031 29.7281 26.1122Z" fill="#5157B4"/>
<path opacity="0.5" d="M52.0778 17.7297C51.5965 17.3578 50.9119 17.4453 50.5422 17.9222L48.8534 20.0944L47.1647 17.9222C46.795 17.4475 46.1103 17.3578 45.6291 17.7297C45.1544 18.0994 45.0669 18.7862 45.4387 19.2653L47.7597 22.2491V25.1562C47.7597 25.76 48.2497 26.25 48.8534 26.25C49.4572 26.25 49.9472 25.76 49.9472 25.1562V22.2491L52.2681 19.2653C52.6422 18.7884 52.5547 18.1016 52.0778 17.7297Z" fill="#5157B4"/>
<path opacity="0.5" d="M41.1972 21.1466H39.0097C38.4059 21.1466 37.9159 20.6566 37.9159 20.0529C37.9159 19.4491 38.4059 18.9591 39.0097 18.9591H41.1972C41.8009 18.9591 42.2909 19.4491 42.2909 20.0529C42.2909 20.6566 41.8009 21.1466 41.1972 21.1466Z" fill="#5157B4"/>
<path opacity="0.5" d="M41.1972 24.7909H39.0097C38.4059 24.7909 37.9159 24.3009 37.9159 23.6971C37.9159 23.0934 38.4059 22.6034 39.0097 22.6034H41.1972C41.8009 22.6034 42.2909 23.0934 42.2909 23.6971C42.2909 24.3009 41.8009 24.7909 41.1972 24.7909Z" fill="#5157B4"/>
</svg>
