<svg width="90" height="41" viewBox="0 0 90 41" fill="none" xmlns="http://www.w3.org/2000/svg">
<path d="M7.19292 39.9733C7.09565 39.9898 6.99692 39.9978 6.89803 39.9972C6.73593 40.0111 6.57362 39.9728 6.43865 39.8886C6.38754 39.8405 6.34852 39.7826 6.32436 39.719C6.30019 39.6554 6.29148 39.5877 6.29884 39.5206V34.1429C6.35406 34.1298 6.42808 34.1157 6.52089 34.0994C6.61824 34.0835 6.71692 34.0755 6.81579 34.0756C6.97269 34.0658 7.12872 34.104 7.25989 34.1841C7.31312 34.2319 7.35382 34.2903 7.37887 34.3548C7.40391 34.4193 7.41265 34.4883 7.4044 34.5565V39.9169C7.33605 39.942 7.26523 39.9609 7.19292 39.9733Z" fill="#717BBF"/>
<path d="M13.0639 39.9422C12.94 39.9828 12.8101 40.0022 12.6797 39.9997C12.519 40.0035 12.3596 39.9694 12.2148 39.9C12.0611 39.8108 11.9362 39.6799 11.8547 39.5227L10.2702 36.7852C10.2003 36.6649 10.1283 36.537 10.0519 36.4036C9.97552 36.2703 9.90786 36.1369 9.84129 36.0036C9.77473 35.8702 9.70925 35.7412 9.64923 35.6165C9.58921 35.4918 9.5401 35.3834 9.49099 35.2913L9.44297 35.2999C9.47499 35.6317 9.49718 35.9866 9.50954 36.3646C9.52264 36.7429 9.52919 37.0996 9.52919 37.4368V39.9303C9.48444 39.9422 9.42006 39.9563 9.33166 39.9726C9.24458 39.9887 9.15616 39.9967 9.06757 39.9964C8.92028 40.0081 8.77337 39.9699 8.6507 39.888C8.60349 39.843 8.56725 39.7878 8.54474 39.7268C8.52224 39.6657 8.51406 39.6004 8.52084 39.5357V34.3058C8.59641 34.228 8.69067 34.1705 8.79475 34.1388C8.91633 34.0961 9.04448 34.0749 9.17343 34.076C9.33539 34.0727 9.49606 34.1053 9.64377 34.1714C9.8 34.2566 9.92723 34.386 10.0094 34.5432L11.6026 37.2904C11.6736 37.4119 11.7434 37.5387 11.8143 37.672C11.8853 37.8054 11.9529 37.9398 12.0206 38.0732L12.2127 38.4591C12.2727 38.5827 12.3218 38.6933 12.3709 38.7844L12.4091 38.7746C12.3582 38.2911 12.3294 37.8126 12.3229 37.3392C12.3163 36.8658 12.3131 36.4032 12.3131 35.9515V34.1432C12.3643 34.1302 12.432 34.1161 12.5149 34.0998C12.6035 34.0838 12.6934 34.0758 12.7834 34.076C12.931 34.0648 13.0781 34.103 13.2014 34.1844C13.2483 34.2298 13.2844 34.2852 13.3069 34.3464C13.3294 34.4075 13.3377 34.473 13.3312 34.5378V39.8013C13.2509 39.8632 13.1605 39.9109 13.0639 39.9422Z" fill="#717BBF"/>
<path d="M16.6301 34.9242V39.9201C16.5643 39.944 16.4963 39.9617 16.427 39.9729C16.3336 39.9895 16.2388 39.9976 16.1439 39.997C15.9896 40.0115 15.8351 39.9726 15.7073 39.8871C15.6595 39.8377 15.6231 39.7789 15.6008 39.7146C15.5784 39.6503 15.5705 39.582 15.5776 39.5145V34.9242H13.8234C13.7866 34.8707 13.7581 34.8122 13.7388 34.7506C13.7152 34.672 13.7038 34.5905 13.705 34.5087C13.6962 34.3917 13.7333 34.2759 13.8087 34.1845C13.845 34.1473 13.8891 34.1183 13.938 34.0993C13.9868 34.0803 14.0393 34.0719 14.0919 34.0746H18.4091C18.4411 34.1262 18.4661 34.1816 18.4835 34.2394C18.5073 34.3145 18.5191 34.3928 18.5185 34.4714C18.5185 34.774 18.3891 34.9253 18.1304 34.9253L16.6301 34.9242Z" fill="#717BBF"/>
<path d="M20.2728 39.9016C20.2089 39.9236 20.1434 39.9408 20.077 39.9531C19.9874 39.9696 19.8965 39.9775 19.8055 39.9766C19.6583 39.99 19.5111 39.9522 19.3882 39.8694C19.3419 39.8219 19.3066 39.7648 19.2847 39.702C19.2628 39.6391 19.2549 39.5722 19.2616 39.506V34.639C19.2589 34.5935 19.2655 34.5478 19.2809 34.5049C19.2962 34.462 19.3201 34.4226 19.351 34.3892C19.4211 34.3238 19.5064 34.277 19.599 34.2531C19.8232 34.177 20.056 34.1295 20.292 34.1116C20.5602 34.0859 20.8242 34.0741 21.0978 34.0741C21.909 34.0741 22.5122 34.2388 22.9075 34.5683C23.3027 34.8977 23.5011 35.3623 23.5025 35.9619C23.5147 36.3414 23.4025 36.7144 23.1832 37.0232C22.9485 37.3302 22.6271 37.5585 22.2613 37.6782C22.4103 37.8669 22.5569 38.0541 22.701 38.24C22.845 38.4258 22.9809 38.6019 23.1087 38.7685C23.2364 38.9346 23.3524 39.0901 23.4546 39.2209C23.5568 39.3517 23.6409 39.4674 23.7037 39.5553C23.6797 39.6881 23.6057 39.8064 23.4972 39.8855C23.3963 39.9593 23.2748 39.999 23.1502 39.9992C23.0229 40.0062 22.8971 39.9683 22.7946 39.892C22.6945 39.8049 22.6064 39.7047 22.5328 39.5939L21.3203 37.8401H20.2707L20.2728 39.9016ZM21.1723 37.0243C21.5776 37.0243 21.899 36.9364 22.1368 36.7606C22.3742 36.5848 22.4934 36.3167 22.4934 35.9587C22.4934 35.6006 22.3731 35.3423 22.1325 35.1665C21.8919 34.9906 21.5375 34.9027 21.068 34.9027C20.9243 34.9027 20.7827 34.9092 20.6422 34.921C20.5017 34.9328 20.375 34.9499 20.2633 34.9681V37.0286L21.1723 37.0243Z" fill="#717BBF"/>
<path d="M27.6876 38.4656H25.2139L24.7173 39.919C24.6555 39.9445 24.591 39.9637 24.5249 39.9762C24.4447 39.9903 24.3633 39.9968 24.2817 39.9957C24.1346 40.0002 23.9895 39.9625 23.8658 39.8877C23.8124 39.8527 23.7694 39.8055 23.7412 39.7504C23.7129 39.6954 23.7003 39.6344 23.7045 39.5735C23.7041 39.5045 23.7142 39.4358 23.7344 39.3694C23.7552 39.3035 23.7817 39.229 23.8151 39.147C23.9027 38.8803 24.0271 38.5369 24.185 38.1158C24.3428 37.6947 24.5133 37.252 24.6919 36.7812C24.8705 36.3104 25.0526 35.8515 25.2346 35.3991C25.4167 34.9467 25.5803 34.5579 25.7116 34.2351C25.8104 34.1861 25.9159 34.1498 26.025 34.1271C26.1676 34.0921 26.3143 34.0743 26.4617 34.0742C26.6406 34.0719 26.8186 34.0978 26.9883 34.1509C27.0585 34.1703 27.1232 34.2043 27.1777 34.2503C27.2321 34.2962 27.2749 34.353 27.3028 34.4165C27.4511 34.7764 27.6131 35.1864 27.789 35.6464C27.9649 36.1063 28.1409 36.58 28.3168 37.0673C28.4919 37.554 28.6609 38.0319 28.8237 38.5013C28.9866 38.9706 29.1317 39.3964 29.2593 39.7786C29.1925 39.8461 29.1112 39.8995 29.0207 39.9352C28.9115 39.9785 28.7937 39.9998 28.6751 39.9978C28.5344 40.0094 28.394 39.9739 28.2787 39.8974C28.1805 39.8039 28.1106 39.6877 28.0759 39.5605L27.6876 38.4656ZM26.4513 34.9607C26.3834 35.1313 26.3096 35.3246 26.2278 35.5395C26.146 35.7543 26.0619 35.9811 25.9743 36.2186C25.8868 36.4562 25.7992 36.697 25.7116 36.941C25.6241 37.185 25.5388 37.4204 25.4581 37.6483H27.4514C27.3639 37.3956 27.2744 37.1408 27.183 36.8838C27.092 36.6279 27.0032 36.3817 26.9191 36.1474C26.835 35.9131 26.7555 35.6939 26.6806 35.4876C26.6057 35.2814 26.5458 35.1065 26.4986 34.9607H26.4513Z" fill="#717BBF"/>
<path d="M34.1771 39.9422C34.0531 39.9826 33.9232 40.002 33.7928 39.9997C33.6317 40.0036 33.4719 39.9694 33.3267 39.8999C33.1735 39.8101 33.0486 39.6794 32.9665 39.5227L31.3815 36.7852C31.3116 36.6649 31.2396 36.5369 31.1632 36.4036C31.0868 36.2703 31.0191 36.1369 30.9525 36.0036C30.8859 35.8702 30.8215 35.7412 30.7604 35.6165C30.6992 35.4918 30.6512 35.3834 30.6021 35.2913L30.5541 35.2999C30.5854 35.6317 30.6075 35.9866 30.6206 36.3646C30.6337 36.7429 30.6403 37.0996 30.6403 37.4368V39.9303C30.5959 39.9426 30.5304 39.9567 30.4438 39.9726C30.3567 39.9887 30.2683 39.9967 30.1796 39.9964C30.0319 40.0083 29.8846 39.9701 29.7616 39.888C29.7147 39.8427 29.6787 39.7875 29.6563 39.7265C29.6338 39.6655 29.6254 39.6003 29.6317 39.5357V34.3058C29.7074 34.2282 29.8017 34.1708 29.9057 34.1388C30.0273 34.0961 30.1555 34.0749 30.2844 34.076C30.4464 34.0727 30.6072 34.1053 30.7549 34.1714C30.9114 34.2563 31.0388 34.3858 31.1206 34.5432L32.7132 37.2904C32.7842 37.4118 32.8541 37.5387 32.925 37.672C32.996 37.8054 33.0636 37.9398 33.1313 38.0732C33.199 38.2065 33.2623 38.3355 33.3234 38.4591C33.3846 38.5827 33.4326 38.6933 33.4817 38.7844L33.5199 38.7746C33.4683 38.2911 33.4395 37.8126 33.4337 37.3392C33.4279 36.8658 33.4246 36.4032 33.4239 35.9515V34.1432C33.4752 34.1302 33.5428 34.1161 33.6258 34.0998C33.7144 34.0838 33.8043 34.0758 33.8943 34.076C34.042 34.0648 34.1891 34.103 34.3124 34.1844C34.3594 34.2298 34.3955 34.2852 34.418 34.3464C34.4405 34.4075 34.4488 34.473 34.4423 34.5378V39.8013C34.3626 39.8628 34.2729 39.9105 34.1771 39.9422Z" fill="#717BBF"/>
<path d="M35.7169 39.8495C35.663 39.7955 35.6209 39.7314 35.5932 39.661C35.5656 39.5907 35.553 39.5156 35.5562 39.4404V34.6302C35.5526 34.5556 35.565 34.481 35.5927 34.4114C35.6204 34.3417 35.6627 34.2784 35.7169 34.2255C35.7731 34.1743 35.8393 34.1346 35.9116 34.1087C35.9838 34.0828 36.0607 34.0712 36.1376 34.0747H39.4575C39.4968 34.1242 39.5258 34.1807 39.543 34.241C39.5675 34.3166 39.5794 34.3956 39.5783 34.475C39.5863 34.5948 39.5486 34.7132 39.4723 34.8076C39.4361 34.8454 39.3918 34.875 39.3426 34.8942C39.2933 34.9133 39.2402 34.9216 39.1873 34.9185H36.6187V36.5385H39.1565C39.1956 36.5878 39.2246 36.6439 39.242 36.7037C39.2664 36.7798 39.2783 36.8591 39.2773 36.9388C39.2875 37.0587 39.25 37.1778 39.1724 37.2715C39.1353 37.3083 39.0907 37.3372 39.0414 37.3563C38.9921 37.3754 38.9393 37.3843 38.8863 37.3823H36.6187V39.1565H39.5076C39.541 39.2084 39.5682 39.2638 39.5886 39.3217C39.6155 39.3969 39.629 39.476 39.6285 39.5557C39.637 39.6755 39.5991 39.7942 39.5224 39.8883C39.4859 39.9257 39.4416 39.9549 39.3924 39.974C39.3432 39.9932 39.2903 40.0018 39.2374 39.9992H36.1376C36.0607 40.0032 35.9838 39.992 35.9115 39.9662C35.8392 39.9405 35.773 39.9008 35.7169 39.8495Z" fill="#717BBF"/>
<path d="M42.5583 34.9242V39.9201C42.4925 39.944 42.4245 39.9617 42.3552 39.9729C42.2618 39.9895 42.167 39.9976 42.0721 39.997C41.9178 40.0115 41.7633 39.9726 41.6355 39.8871C41.5877 39.8377 41.5513 39.7789 41.5289 39.7146C41.5066 39.6503 41.4986 39.582 41.5058 39.5145V34.9242H39.7493C39.7126 34.8707 39.6841 34.8122 39.6647 34.7506C39.6411 34.672 39.6297 34.5905 39.6309 34.5087C39.6222 34.3917 39.6592 34.2759 39.7347 34.1845C39.7709 34.1473 39.815 34.1183 39.8639 34.0993C39.9128 34.0803 39.9653 34.0719 40.0178 34.0746H44.335C44.367 34.1262 44.392 34.1816 44.4094 34.2394C44.4332 34.3145 44.445 34.3928 44.4444 34.4714C44.4444 34.774 44.3151 34.9253 44.0564 34.9253L42.5583 34.9242Z" fill="#717BBF"/>
<path d="M66.6334 34.9242V39.9202C66.5671 39.944 66.4988 39.9616 66.4292 39.973C66.3358 39.9896 66.241 39.9977 66.146 39.9972C65.9918 40.0112 65.8374 39.9724 65.7095 39.8872C65.662 39.8376 65.626 39.7787 65.6038 39.7145C65.5816 39.6502 65.5738 39.5821 65.5809 39.5146V34.9242H63.8244C63.7867 34.8712 63.7581 34.8125 63.7398 34.7505C63.7152 34.6722 63.7034 34.5906 63.7048 34.5087C63.6967 34.3918 63.7337 34.2761 63.8086 34.1844C63.845 34.1474 63.8891 34.1185 63.9379 34.0995C63.9868 34.0806 64.0392 34.072 64.0918 34.0745H68.409C68.4419 34.1256 68.467 34.1812 68.4835 34.2394C68.5077 34.3144 68.5195 34.3927 68.5184 34.4713C68.5184 34.774 68.3895 34.9253 68.1315 34.9253L66.6334 34.9242Z" fill="#717BBF"/>
<path d="M69.0503 39.8495C68.9963 39.7955 68.9542 39.7314 68.9266 39.661C68.8989 39.5907 68.8863 39.5156 68.8895 39.4404V34.6303C68.8859 34.5557 68.8984 34.4812 68.926 34.4115C68.9537 34.3418 68.996 34.2785 69.0503 34.2256C69.1063 34.1741 69.1724 34.1342 69.2447 34.1083C69.317 34.0824 69.394 34.071 69.4709 34.0748H72.7908C72.8301 34.1243 72.8591 34.1808 72.8763 34.2411C72.9008 34.3168 72.9127 34.3958 72.9116 34.4751C72.9197 34.5949 72.8819 34.7133 72.8056 34.8077C72.7695 34.8455 72.7252 34.8751 72.6759 34.8943C72.6266 34.9134 72.5736 34.9218 72.5206 34.9186H69.952V36.5386H72.4898C72.5289 36.5879 72.5579 36.6439 72.5753 36.7038C72.5997 36.7799 72.6117 36.8592 72.6107 36.9389C72.6208 37.0587 72.5833 37.1778 72.5058 37.2715C72.4686 37.3084 72.424 37.3373 72.3747 37.3564C72.3255 37.3754 72.2726 37.3843 72.2196 37.3824H69.952V39.1565H72.8409C72.8744 39.2084 72.9015 39.2638 72.9219 39.3217C72.9489 39.3969 72.9624 39.476 72.9618 39.5557C72.9703 39.6755 72.9325 39.7942 72.8558 39.8883C72.8193 39.9257 72.7749 39.9549 72.7257 39.974C72.6765 39.9932 72.6237 40.0018 72.5707 39.9992H69.4709C69.3941 40.0032 69.3171 39.992 69.2448 39.9662C69.1725 39.9405 69.1063 39.9008 69.0503 39.8495Z" fill="#717BBF"/>
<path d="M77.0517 38.4686H74.7439L74.2804 39.9229C74.2223 39.9483 74.1618 39.9675 74.0997 39.9802C74.0249 39.9942 73.9489 40.0007 73.8728 39.9996C73.7358 40.0042 73.6007 39.9665 73.4857 39.8916C73.4356 39.8567 73.3953 39.8095 73.3687 39.7544C73.3422 39.6993 73.3302 39.6382 73.334 39.5772C73.3342 39.5081 73.3436 39.4394 73.362 39.3729C73.3813 39.307 73.4061 39.2325 73.4383 39.1504C73.5201 38.8831 73.6351 38.5392 73.7835 38.1185C73.9319 37.6978 74.0897 37.2527 74.2567 36.783C74.4238 36.3141 74.5922 35.8531 74.7622 35.4C74.9331 34.9462 75.0848 34.5583 75.2074 34.2352C75.2999 34.186 75.3987 34.1497 75.501 34.1272C75.6337 34.0922 75.7703 34.0744 75.9075 34.0742C76.0744 34.0719 76.2405 34.0978 76.3989 34.1509C76.4645 34.1704 76.5249 34.2044 76.5757 34.2504C76.6265 34.2964 76.6664 34.3532 76.6925 34.4167C76.8316 34.7769 76.9829 35.1871 77.1463 35.6474C77.3098 36.1077 77.4739 36.5817 77.6388 37.0693C77.8023 37.5563 77.96 38.0346 78.112 38.5042C78.2626 38.9732 78.3991 39.3978 78.5185 39.7781C78.4562 39.8456 78.3803 39.899 78.2959 39.9348C78.1939 39.9781 78.084 39.9994 77.9733 39.9975C77.8423 40.0093 77.7115 39.9736 77.6044 39.897C77.5124 39.8037 77.447 39.6872 77.4152 39.5599L77.0517 38.4686ZM75.8978 34.9613C75.8343 35.132 75.7655 35.3254 75.6891 35.5404C75.6128 35.7555 75.5354 35.9824 75.4493 36.2168C75.3633 36.4513 75.2848 36.6955 75.2031 36.9397C75.1213 37.1839 75.0418 37.4194 74.9665 37.6474H76.8301C76.7484 37.3946 76.6649 37.1396 76.5796 36.8824C76.4946 36.6263 76.4118 36.38 76.3333 36.1455C76.2548 35.911 76.1806 35.6917 76.1107 35.4853C76.0408 35.279 75.9849 35.1039 75.9408 34.9581L75.8978 34.9613Z" fill="#717BBF"/>
<path d="M82.5532 38.4385C82.4899 38.4894 82.4173 38.5282 82.3394 38.5529C82.239 38.5867 82.1332 38.603 82.0271 38.6008C81.9055 38.6035 81.7847 38.5824 81.6715 38.5387C81.625 38.5215 81.5826 38.4952 81.5466 38.4616C81.5106 38.4279 81.4819 38.3874 81.4621 38.3426C81.163 37.6649 80.9046 37.0642 80.6867 36.5405C80.4689 36.0168 80.2953 35.5785 80.1661 35.2255H80.1173C80.0974 35.6787 80.0797 36.0956 80.0642 36.4762C80.0476 36.8565 80.0298 37.228 80.0099 37.593C79.99 37.958 79.9689 38.3274 79.9468 38.7043C79.9246 39.0813 79.8991 39.4877 79.8737 39.9224C79.8085 39.9444 79.7419 39.9619 79.6743 39.9747C79.5889 39.9912 79.5021 39.9993 79.4151 39.9987C79.065 39.9987 78.8889 39.8582 78.8889 39.5771C78.8889 39.4943 78.8889 39.3472 78.9044 39.1413C78.9199 38.9353 78.9265 38.6793 78.9432 38.3884C78.9598 38.0975 78.9786 37.7771 79.0019 37.4252C79.0251 37.0733 79.0484 36.7181 79.0739 36.3564C79.0994 35.9947 79.1259 35.6406 79.1525 35.293C79.1791 34.9454 79.2046 34.6229 79.2301 34.3288C79.3074 34.2623 79.3944 34.2076 79.4882 34.1664C79.6273 34.1051 79.7788 34.0757 79.9313 34.0803C80.1036 34.072 80.2751 34.1096 80.4275 34.1893C80.5559 34.2672 80.6577 34.381 80.7199 34.5162C80.8241 34.7406 80.9315 34.9814 81.0423 35.2407C81.1531 35.5 81.2638 35.7615 81.3746 36.0263C81.4854 36.291 81.5962 36.5558 81.6959 36.8173C81.7955 37.0788 81.9008 37.325 81.9983 37.5549H82.047C82.1696 37.236 82.2948 36.9197 82.4225 36.6059C82.5503 36.2921 82.6736 35.9918 82.7925 35.7048C82.9121 35.4143 83.0259 35.143 83.1337 34.891C83.2415 34.6389 83.3405 34.4087 83.4306 34.2002C83.5157 34.1638 83.6039 34.135 83.6942 34.1141C83.7993 34.0887 83.9072 34.0759 84.0154 34.076C84.1822 34.0654 84.3488 34.0985 84.4984 34.1719C84.5503 34.2022 84.5956 34.2423 84.6315 34.29C84.6675 34.3378 84.6934 34.392 84.7078 34.4497C84.7332 34.5641 84.7631 34.7548 84.7953 35.0195C84.8274 35.2843 84.8595 35.5904 84.8927 35.9358C84.926 36.2812 84.957 36.6462 84.9902 37.033C85.0235 37.4198 85.0523 37.7957 85.0777 38.1541C85.1032 38.5126 85.1265 38.8482 85.1464 39.1511C85.1664 39.4539 85.1785 39.6958 85.1852 39.8658C85.114 39.9097 85.0368 39.9435 84.9559 39.966C84.8623 39.9902 84.7657 40.0016 84.669 39.9998C84.5445 40.0025 84.4214 39.9728 84.3123 39.9137C84.2583 39.8776 84.2144 39.8288 84.1846 39.7717C84.1548 39.7146 84.1401 39.651 84.1417 39.5869C84.1166 39.1511 84.0922 38.7229 84.0686 38.3023C84.045 37.8817 84.0239 37.4822 84.0055 37.1038C83.9863 36.7268 83.9685 36.3785 83.9523 36.0589C83.9357 35.7397 83.9213 35.4673 83.908 35.244H83.8692C83.7466 35.5701 83.5794 35.9856 83.3674 36.4904C83.1555 36.9952 82.8841 37.6446 82.5532 38.4385Z" fill="#717BBF"/>
<path d="M87.8361 39.4989C88.2265 39.4989 88.5147 39.4134 88.7007 39.2423C88.791 39.1611 88.8631 39.0592 88.9114 38.9442C88.9597 38.8292 88.983 38.7042 88.9797 38.5783C88.9841 38.4722 88.9675 38.3663 88.9311 38.2675C88.8947 38.1686 88.8392 38.079 88.7683 38.0043C88.5709 37.8285 88.3385 37.703 88.0887 37.6374L87.3911 37.4123C87.1882 37.3456 86.9909 37.2609 86.8013 37.1591C86.6353 37.0722 86.483 36.9583 86.35 36.8214C86.2266 36.6945 86.1301 36.541 86.0667 36.3712C85.998 36.1767 85.9646 35.9701 85.9684 35.7624C85.9588 35.5246 86.0033 35.2878 86.0981 35.0723C86.1928 34.8568 86.3351 34.6688 86.5128 34.5243C86.875 34.2242 87.3682 34.0741 87.9925 34.0741C88.2292 34.0726 88.4655 34.094 88.6986 34.1383C88.892 34.1737 89.0807 34.2334 89.2609 34.3161C89.4002 34.3786 89.5266 34.4696 89.6329 34.584C89.6752 34.628 89.7089 34.6805 89.7321 34.7385C89.7553 34.7964 89.7676 34.8586 89.7682 34.9216C89.7707 35.0252 89.743 35.127 89.6889 35.2131C89.6386 35.2936 89.574 35.3628 89.4987 35.4168C89.3136 35.275 89.1079 35.1663 88.8899 35.095C88.6208 35.003 88.3396 34.9578 88.057 34.961C87.7166 34.961 87.4524 35.0342 87.2664 35.1794C87.1779 35.2443 87.106 35.3318 87.0573 35.4338C87.0086 35.5357 86.9845 35.6491 86.9873 35.7635C86.9844 35.8539 87.0004 35.9438 87.0342 36.0267C87.0681 36.1097 87.1188 36.1835 87.1829 36.2429C87.3733 36.3968 87.5918 36.5064 87.8245 36.5648L88.3635 36.7336C88.8842 36.898 89.2891 37.1231 89.578 37.4089C89.8669 37.6948 90.0074 38.0846 89.9997 38.5783C90.0021 38.8294 89.9527 39.078 89.8549 39.3065C89.7591 39.527 89.6178 39.7216 89.4416 39.876C89.2421 40.0447 89.0128 40.1691 88.7673 40.2417C88.4692 40.3314 88.1606 40.3746 87.8509 40.37C87.5887 40.3726 87.3269 40.3462 87.0698 40.2913C86.8599 40.2477 86.6555 40.1778 86.461 40.083C86.3117 40.0136 86.1772 39.9125 86.0657 39.7859C85.9789 39.6902 85.9291 39.5633 85.9262 39.4303C85.9225 39.3068 85.9625 39.1863 86.0382 39.0926C86.1084 39.0026 86.1975 38.9313 86.2982 38.8844C86.4814 39.0532 86.6864 39.1931 86.907 39.2997C87.1985 39.4404 87.5162 39.5085 87.8361 39.4989Z" fill="#717BBF"/>
<path d="M50.2594 34.0748C50.2951 34.1241 50.3217 34.18 50.3379 34.2396C50.3599 34.3147 50.3709 34.3929 50.3704 34.4715C50.3704 34.7737 50.2468 34.9253 50.0018 34.9253H47.6524V36.6835H49.9327C49.9661 36.7359 49.9925 36.7929 50.0112 36.8528C50.0338 36.9296 50.0448 37.0097 50.0437 37.0901C50.0437 37.3868 49.9233 37.5352 49.6846 37.5352H47.6618V39.9329C47.6186 39.9454 47.5557 39.9597 47.4734 39.9758C47.3867 39.9924 47.2987 40.0005 47.2106 40C46.8483 40 46.6672 39.8428 46.6672 39.5263V34.6253C46.6639 34.5514 46.6754 34.4775 46.7008 34.4085C46.7262 34.3394 46.765 34.2767 46.8148 34.2242C46.8663 34.1732 46.927 34.1337 46.9934 34.108C47.0598 34.0823 47.1305 34.071 47.2012 34.0748H50.2594Z" fill="#717BBF"/>
<path d="M56.2958 37.2229C56.3033 37.6863 56.2313 38.1473 56.0834 38.5834C55.9581 38.9526 55.7592 39.2889 55.5003 39.5693C55.2513 39.8331 54.9518 40.0372 54.6221 40.168C53.9074 40.4378 53.1267 40.4378 52.4121 40.168C52.0813 40.0394 51.7814 39.835 51.5338 39.5693C51.277 39.2878 51.0794 38.9518 50.954 38.5834C50.806 38.1473 50.734 37.6863 50.7416 37.2229C50.7322 36.7604 50.8042 36.3001 50.954 35.8656C51.0841 35.498 51.2844 35.1628 51.5423 34.8809C51.7916 34.614 52.0927 34.4078 52.4248 34.2766C53.1299 34.0066 53.9021 34.0066 54.6072 34.2766C54.9377 34.4084 55.2374 34.6146 55.4855 34.8809C55.743 35.1631 55.9432 35.4983 56.0738 35.8656C56.2268 36.2995 56.3021 36.7598 56.2958 37.2229ZM55.2773 37.2229C55.2773 36.4831 55.1187 35.9204 54.8015 35.5348C54.4844 35.1492 54.0574 34.956 53.5208 34.9552C53.282 34.9462 53.0444 34.994 52.8253 35.095C52.6062 35.1961 52.4113 35.3479 52.2549 35.5393C51.9342 35.9287 51.7738 36.4914 51.7738 37.2274C51.7738 37.9634 51.9328 38.526 52.2506 38.9154C52.4077 39.1084 52.6039 39.2612 52.8246 39.3623C53.0453 39.4635 53.2848 39.5104 53.525 39.4995C54.0617 39.4995 54.4886 39.3048 54.8058 38.9154C55.123 38.526 55.2801 37.9619 55.2773 37.2229Z" fill="#717BBF"/>
<path d="M58.0514 39.9016C57.9871 39.9235 57.9212 39.9407 57.8544 39.953C57.7648 39.9697 57.6738 39.9776 57.5827 39.9766C57.4358 39.9903 57.2886 39.9525 57.1662 39.8694C57.1197 39.822 57.0842 39.7649 57.0623 39.702C57.0404 39.6392 57.0326 39.5722 57.0395 39.506V34.639C57.037 34.5936 57.0435 34.548 57.0587 34.5052C57.0738 34.4623 57.0974 34.4229 57.1279 34.3892C57.1982 34.324 57.2835 34.2772 57.3761 34.2531C57.6008 34.1769 57.8342 34.1294 58.0706 34.1116C58.3391 34.0859 58.6032 34.0741 58.8759 34.0741C59.6884 34.0741 60.292 34.2388 60.6868 34.5683C61.0817 34.8977 61.2798 35.3623 61.2812 35.9619C61.293 36.3413 61.1807 36.7141 60.9617 37.0232C60.7262 37.3299 60.4043 37.5582 60.0381 37.6782C60.188 37.8669 60.3349 38.0541 60.4791 38.2399C60.6218 38.4254 60.7582 38.6012 60.886 38.7684C61.0139 38.9357 61.13 39.09 61.2333 39.2208C61.3366 39.3516 61.4186 39.4674 61.4815 39.5553C61.4579 39.6882 61.3838 39.8067 61.2748 39.8855C61.1742 39.9591 61.0531 39.9989 60.9286 39.9991C60.8012 40.0064 60.6753 39.9684 60.5728 39.8919C60.472 39.8052 60.3834 39.7049 60.3097 39.5939L59.1007 37.8401H58.0514V39.9016ZM58.9516 37.0243C59.3571 37.0243 59.6788 36.9364 59.9167 36.7605C60.1542 36.5847 60.2725 36.3167 60.2725 35.9587C60.2725 35.6006 60.1521 35.3423 59.9113 35.1665C59.6706 34.9906 59.3169 34.9027 58.8461 34.9027C58.7023 34.9027 58.5596 34.9092 58.42 34.921C58.2805 34.9328 58.1537 34.9499 58.0408 34.9681V37.0286L58.9516 37.0243Z" fill="#717BBF"/>
<path d="M33.3653 28.8051C33.0393 28.862 32.7087 28.89 32.3775 28.8888C31.6619 28.8888 31.1489 28.7595 30.8373 28.5041C30.5256 28.2486 30.3704 27.8182 30.3704 27.216V8.38295C30.5538 8.33839 30.8024 8.28838 31.114 8.23186C31.4396 8.17508 31.7699 8.14706 32.1007 8.14816C32.7697 8.14816 33.2663 8.27099 33.5903 8.51665C33.9143 8.76231 34.0756 9.1971 34.0741 9.82103V28.6258C33.8449 28.7093 33.6074 28.7694 33.3653 28.8051Z" fill="#5157B4"/>
<path d="M47.4206 16.1649C46.8077 15.6534 45.9775 15.3977 44.93 15.3977C44.2216 15.3868 43.5159 15.4882 42.8393 15.6983C42.2918 15.8717 41.7615 16.0951 41.255 16.3656V28.6207C41.0444 28.7037 40.8259 28.7655 40.603 28.8052C40.3001 28.863 39.9922 28.891 39.6837 28.8888C39.0376 28.8888 38.5584 28.7662 38.2461 28.5209C37.9339 28.2757 37.7778 27.8637 37.7778 27.285V16.2658C37.7778 15.7536 37.8781 15.3416 38.0788 15.0298C38.2794 14.7181 38.6138 14.4066 39.0817 14.0956C39.7055 13.7179 40.5194 13.3729 41.5234 13.0604C42.6304 12.7345 43.7803 12.5772 44.9343 12.5938C47.0953 12.5938 48.7894 13.0777 50.0165 14.0456C51.2437 15.0136 51.8555 16.477 51.8518 18.436V28.6207C51.6359 28.7045 51.412 28.7663 51.1836 28.8052C50.8747 28.8625 50.5611 28.8904 50.2469 28.8888C49.5949 28.8888 49.1211 28.7662 48.8082 28.5209C48.4952 28.2757 48.3409 27.8644 48.3409 27.285V18.5694C48.3409 17.4793 48.0341 16.6777 47.4206 16.1649Z" fill="#5157B4"/>
<path d="M58.9137 25.9079C59.3726 26.2433 60.0178 26.411 60.8491 26.411C61.2481 26.4073 61.645 26.351 62.0299 26.2433C62.4034 26.1479 62.7663 26.0132 63.1127 25.8415C63.2697 26.0271 63.4069 26.2293 63.5219 26.4447C63.6483 26.6924 63.7106 26.969 63.7031 27.2482C63.7031 27.8289 63.4132 28.3095 62.8335 28.6898C62.2537 29.0702 61.3738 29.26 60.1936 29.2593C58.5538 29.2593 57.2472 28.8851 56.2738 28.1367C55.3005 27.3883 54.8141 26.1544 54.8148 24.4348V8.78647C54.9672 8.74292 55.1857 8.6863 55.4703 8.61988C55.7717 8.55043 56.0799 8.51646 56.3889 8.51862C57.0234 8.51862 57.4881 8.64166 57.7829 8.88773C58.0778 9.1338 58.2252 9.54682 58.2252 10.1268V13.4444H63.3088C63.4154 13.6221 63.4982 13.8136 63.555 14.0138C63.6322 14.2631 63.671 14.5232 63.6701 14.7847C63.6701 15.745 63.2654 16.2252 62.4562 16.2252H58.2252V24.2007C58.2252 25.0042 58.4547 25.5733 58.9137 25.9079Z" fill="#5157B4"/>
<path d="M69.3583 28.6208C69.1502 28.7034 68.9347 28.7652 68.7147 28.8052C68.4157 28.863 68.1117 28.891 67.8073 28.8888C67.1694 28.8888 66.6964 28.7662 66.3882 28.5209C66.08 28.2757 65.9259 27.8637 65.9259 27.285V16.3323C65.9259 15.7768 66.0357 15.3261 66.2552 14.9803C66.4747 14.6346 66.8269 14.3061 67.3117 13.9951C67.9503 13.5951 68.7648 13.2612 69.7551 12.9936C70.822 12.7171 71.92 12.5825 73.0212 12.5932C74.9569 12.5932 75.9251 13.1495 75.9259 14.262C75.9278 14.5187 75.883 14.7736 75.7939 15.014C75.715 15.2291 75.6155 15.4359 75.4968 15.6314C75.2766 15.5873 75.0016 15.5428 74.672 15.4979C74.3217 15.4519 73.9687 15.4295 73.6155 15.4306C72.8038 15.4227 71.9944 15.5182 71.2064 15.7149C70.5618 15.8723 69.9402 16.1138 69.3572 16.4332L69.3583 28.6208Z" fill="#5157B4"/>
<path d="M82.7991 12.5928C84.8867 12.5928 86.5479 13.0453 87.7828 13.9504C89.0177 14.8554 89.6333 16.2806 89.6296 18.2259V26.0382C89.6296 26.5525 89.5118 26.9494 89.2762 27.2291C89.0011 27.5414 88.677 27.8074 88.3167 28.0169C87.6054 28.4026 86.8471 28.6956 86.0606 28.8885C85.0149 29.1497 83.9395 29.2739 82.8615 29.2579C80.6842 29.2579 78.984 28.833 77.7607 27.9831C76.5375 27.1332 75.9259 25.8813 75.9259 24.2273C75.9259 22.752 76.403 21.6232 77.357 20.8409C78.3111 20.0586 79.686 19.5781 81.4818 19.3994L86.1613 18.9298V18.1921C86.1613 17.2086 85.8415 16.4931 85.2018 16.0456C84.5621 15.5982 83.67 15.3748 82.5256 15.3755C81.6479 15.3729 80.7745 15.4969 79.9325 15.7438C79.1706 15.9642 78.4276 16.2448 77.7104 16.5828C77.4824 16.4003 77.2887 16.1789 77.1382 15.929C76.9806 15.6716 76.8987 15.3752 76.9019 15.0737C76.888 14.7374 76.9891 14.4063 77.1885 14.1345C77.4288 13.8527 77.7351 13.6342 78.0802 13.4982C78.762 13.1675 79.4878 12.936 80.2356 12.8107C81.0818 12.6616 81.9398 12.5887 82.7991 12.5928ZM82.8658 26.5078C83.5595 26.519 84.2517 26.4403 84.925 26.2735C85.5085 26.1166 85.9235 25.9488 86.1701 25.7701V21.511L82.5004 21.8792C81.4676 21.9918 80.6929 22.221 80.1765 22.5668C79.6601 22.9125 79.4023 23.4435 79.403 24.1597C79.403 24.8978 79.6835 25.4734 80.2444 25.8867C80.8053 26.3 81.6791 26.5071 82.8658 26.5078Z" fill="#5157B4"/>
<path d="M23.9479 8.73562C23.8879 8.52979 23.8008 8.33275 23.6889 8.1496H1.34762C1.16404 8.1408 0.980712 8.17164 0.810255 8.24003C0.639799 8.30841 0.486255 8.4127 0.360186 8.54573C0.120275 8.80982 0.000319965 9.19432 0.000319965 9.69921C-0.00408408 9.99075 0.0369989 10.2812 0.122104 10.5602C0.186512 10.781 0.28576 10.9902 0.416141 11.1801H6.54045V27.5372C6.54045 28.157 6.69076 28.599 6.99138 28.8631C7.2909 29.1261 7.79888 29.2592 8.51423 29.2592C8.84531 29.2602 9.17582 29.2314 9.50166 29.173C9.74382 29.1345 9.98133 29.0712 10.2104 28.9842V11.1801H13.8244V27.5372C13.8244 28.157 13.9748 28.599 14.2754 28.8631C14.5749 29.1261 15.0829 29.2592 15.7982 29.2592C16.1293 29.2603 16.4598 29.2314 16.7857 29.173C17.0282 29.1342 17.2661 29.0706 17.4955 28.9831V11.1801H22.7234C23.6238 11.1801 24.074 10.6406 24.074 9.56171C24.0754 9.2815 24.0328 9.0028 23.9479 8.73562Z" fill="#5157B4"/>
<path d="M15.9248 5.92593C16.5109 5.92614 17.0839 5.75255 17.5713 5.4271C18.0587 5.10166 18.4386 4.63898 18.663 4.09759C18.8875 3.5562 18.9463 2.96041 18.8321 2.38558C18.7179 1.81075 18.4358 1.2827 18.0214 0.868216C17.6071 0.45373 17.0792 0.171427 16.5044 0.057013C15.9296 -0.0574013 15.3338 0.00121207 14.7923 0.22544C14.2508 0.449668 13.788 0.829437 13.4624 1.31672C13.1368 1.804 12.963 2.3769 12.963 2.96296C12.9638 3.74834 13.2761 4.50132 13.8314 5.05676C14.3866 5.61221 15.1395 5.92478 15.9248 5.92593Z" fill="#5157B4"/>
<path d="M8.51851 5.92593C10.1549 5.92593 11.4815 4.59936 11.4815 2.96296C11.4815 1.32656 10.1549 0 8.51851 0C6.88211 0 5.55555 1.32656 5.55555 2.96296C5.55555 4.59936 6.88211 5.92593 8.51851 5.92593Z" fill="#5157B4"/>
</svg>
