<svg width="100" height="45" viewBox="0 0 100 45" fill="none" xmlns="http://www.w3.org/2000/svg">
<path d="M7.99209 44.4673C7.88401 44.4856 7.77431 44.4945 7.66443 44.4939C7.48432 44.5093 7.30397 44.4667 7.15401 44.3732C7.09722 44.3198 7.05387 44.2555 7.02702 44.1848C7.00017 44.1141 6.99049 44.0389 6.99866 43.9644V37.989C7.06002 37.9746 7.14226 37.9589 7.24539 37.9408C7.35356 37.9231 7.4632 37.9142 7.57305 37.9143C7.74739 37.9034 7.92076 37.9458 8.0665 38.0349C8.12565 38.0879 8.17087 38.1528 8.1987 38.2245C8.22653 38.2962 8.23623 38.3729 8.22707 38.4486V44.4046C8.15112 44.4325 8.07243 44.4535 7.99209 44.4673Z" fill="#2B2B2B"/>
<path d="M14.5154 44.4328C14.3778 44.4778 14.2334 44.4994 14.0886 44.4966C13.91 44.5009 13.7329 44.4629 13.572 44.3858C13.4013 44.2867 13.2625 44.1413 13.1719 43.9666L11.4113 40.925C11.3337 40.7913 11.2537 40.6491 11.1688 40.501C11.0839 40.3528 11.0087 40.2046 10.9348 40.0565C10.8608 39.9083 10.788 39.765 10.7214 39.6264C10.6547 39.4879 10.6001 39.3674 10.5455 39.2651L10.4922 39.2747C10.5278 39.6433 10.5524 40.0376 10.5662 40.4576C10.5807 40.878 10.588 41.2743 10.588 41.649V44.4195C10.5383 44.4328 10.4667 44.4484 10.3685 44.4665C10.2717 44.4844 10.1735 44.4933 10.0751 44.493C9.91142 44.5059 9.74818 44.4635 9.61189 44.3726C9.55943 44.3225 9.51916 44.2612 9.49415 44.1934C9.46915 44.1255 9.46006 44.0529 9.46759 43.9811V38.1701C9.55156 38.0836 9.6563 38.0197 9.77194 37.9846C9.90703 37.9371 10.0494 37.9135 10.1927 37.9147C10.3727 37.9111 10.5512 37.9473 10.7153 38.0207C10.8889 38.1154 11.0303 38.2592 11.1215 38.4339L12.8918 41.4863C12.9706 41.6213 13.0482 41.7622 13.127 41.9104C13.2058 42.0585 13.281 42.2079 13.3562 42.3561L13.5696 42.7849C13.6363 42.9222 13.6909 43.0451 13.7454 43.1463L13.7879 43.1354C13.7313 42.5982 13.6993 42.0666 13.6921 41.5405C13.6848 41.0145 13.6812 40.5006 13.6812 39.9987V37.9894C13.7382 37.9749 13.8133 37.9593 13.9055 37.9412C14.0039 37.9234 14.1037 37.9145 14.2038 37.9147C14.3677 37.9024 14.5312 37.9447 14.6682 38.0352C14.7204 38.0856 14.7604 38.1472 14.7854 38.2151C14.8104 38.2831 14.8196 38.3558 14.8125 38.4279V44.2762C14.7232 44.345 14.6227 44.3979 14.5154 44.4328Z" fill="#2B2B2B"/>
<path d="M18.4779 38.8572V44.4082C18.4048 44.4347 18.3292 44.4544 18.2522 44.4668C18.1484 44.4853 18.0431 44.4943 17.9376 44.4937C17.7662 44.5097 17.5945 44.4665 17.4525 44.3715C17.3994 44.3167 17.359 44.2513 17.3342 44.1798C17.3093 44.1084 17.3005 44.0326 17.3084 43.9575V38.8572H15.3593C15.3185 38.7977 15.2868 38.7327 15.2653 38.6643C15.2391 38.577 15.2264 38.4865 15.2277 38.3956C15.218 38.2656 15.2592 38.1368 15.343 38.0353C15.3833 37.994 15.4323 37.9617 15.4866 37.9406C15.5409 37.9195 15.5993 37.9102 15.6576 37.9131H20.4545C20.4901 37.9705 20.5179 38.0321 20.5372 38.0963C20.5636 38.1798 20.5767 38.2667 20.5761 38.354C20.5761 38.6903 20.4324 38.8584 20.1449 38.8584L18.4779 38.8572Z" fill="#2B2B2B"/>
<path d="M22.2077 44.3876C22.1307 44.4121 22.0519 44.4312 21.9719 44.4448C21.8642 44.4632 21.7548 44.472 21.6452 44.471C21.468 44.4859 21.2908 44.4438 21.1429 44.3519C21.0872 44.2991 21.0446 44.2356 21.0183 44.1658C20.9919 44.096 20.9824 44.0217 20.9904 43.9481V38.5403C20.9873 38.4897 20.9952 38.439 21.0137 38.3913C21.0322 38.3436 21.0609 38.2999 21.0981 38.2628C21.1825 38.1901 21.2851 38.1381 21.3966 38.1115C21.6665 38.027 21.9468 37.9742 22.2308 37.9543C22.5537 37.9257 22.8714 37.9126 23.2007 37.9126C24.1771 37.9126 24.9032 38.0956 25.379 38.4617C25.8548 38.8278 26.0936 39.3439 26.0953 40.0102C26.11 40.4319 25.9749 40.8463 25.7109 41.1894C25.4284 41.5305 25.0416 41.7842 24.6012 41.9172C24.7806 42.1268 24.957 42.3349 25.1304 42.5414C25.3038 42.7478 25.4674 42.9436 25.6212 43.1286C25.775 43.3132 25.9146 43.4859 26.0376 43.6313C26.1606 43.7766 26.2619 43.9052 26.3375 44.0029C26.3086 44.1504 26.2195 44.2819 26.0889 44.3698C25.9674 44.4517 25.8212 44.4959 25.6712 44.496C25.5179 44.5039 25.3666 44.4618 25.2432 44.3769C25.1226 44.2802 25.0166 44.1688 24.928 44.0458L23.4685 42.0971H22.2051L22.2077 44.3876ZM23.2904 41.1906C23.7782 41.1906 24.1652 41.0929 24.4513 40.8976C24.7371 40.7022 24.8806 40.4045 24.8806 40.0066C24.8806 39.6088 24.7358 39.3217 24.4462 39.1264C24.1566 38.931 23.7299 38.8333 23.1649 38.8333C22.9919 38.8333 22.8215 38.8405 22.6523 38.8536C22.4832 38.8667 22.3307 38.8858 22.1962 38.906V41.1954L23.2904 41.1906Z" fill="#2B2B2B"/>
<path d="M30.7641 42.7921H28.0154L27.4637 44.407C27.395 44.4353 27.3234 44.4566 27.2499 44.4706C27.1608 44.4862 27.0703 44.4934 26.9797 44.4922C26.8162 44.4972 26.655 44.4553 26.5176 44.3722C26.4582 44.3333 26.4105 44.2808 26.3791 44.2197C26.3477 44.1585 26.3337 44.0908 26.3383 44.0231C26.3379 43.9464 26.3491 43.87 26.3716 43.7963C26.3947 43.7231 26.4241 43.6403 26.4612 43.5492C26.5585 43.2528 26.6968 42.8713 26.8722 42.4034C27.0476 41.9355 27.2371 41.4436 27.4355 40.9205C27.6339 40.3974 27.8362 39.8875 28.0385 39.3848C28.2408 38.8822 28.4225 38.4502 28.5685 38.0915C28.6783 38.0371 28.7954 37.9967 28.9167 37.9715C29.0751 37.9326 29.2382 37.9129 29.4019 37.9128C29.6007 37.9102 29.7984 37.939 29.987 37.9979C30.065 38.0196 30.137 38.0573 30.1974 38.1084C30.2579 38.1594 30.3054 38.2226 30.3365 38.2931C30.5012 38.693 30.6813 39.1485 30.8767 39.6596C31.0722 40.1707 31.2676 40.697 31.4631 41.2385C31.6577 41.7791 31.8454 42.3102 32.0264 42.8317C32.2073 43.3532 32.3686 43.8263 32.5103 44.251C32.4362 44.326 32.3458 44.3853 32.2453 44.425C32.1239 44.473 31.993 44.4967 31.8612 44.4946C31.705 44.5075 31.5489 44.4679 31.4208 44.383C31.3117 44.2791 31.234 44.1499 31.1955 44.0087L30.7641 42.7921ZM29.3904 38.8977C29.3149 39.0873 29.2329 39.3021 29.142 39.5408C29.0511 39.7796 28.9577 40.0315 28.8604 40.2955C28.7631 40.5594 28.6658 40.8269 28.5685 41.0981C28.4712 41.3692 28.3765 41.6308 28.2868 41.8839H30.5016C30.4043 41.6032 30.3049 41.32 30.2033 41.0345C30.1022 40.7502 30.0036 40.4766 29.9102 40.2163C29.8167 39.9559 29.7284 39.7124 29.6452 39.4832C29.5619 39.2541 29.4954 39.0597 29.4429 38.8977H29.3904Z" fill="#2B2B2B"/>
<path d="M37.9745 44.4328C37.8368 44.4776 37.6925 44.4992 37.5476 44.4966C37.3685 44.501 37.191 44.463 37.0297 44.3858C36.8594 44.286 36.7207 44.1408 36.6294 43.9666L34.8683 40.925C34.7907 40.7913 34.7106 40.6491 34.6257 40.501C34.5408 40.3528 34.4656 40.2046 34.3917 40.0565C34.3177 39.9083 34.2461 39.765 34.1782 39.6264C34.1103 39.4879 34.0569 39.3674 34.0023 39.265L33.949 39.2747C33.9837 39.6433 34.0084 40.0376 34.0229 40.4576C34.0375 40.878 34.0448 41.2743 34.0448 41.6489V44.4195C33.9955 44.4332 33.9227 44.4488 33.8265 44.4665C33.7297 44.4844 33.6314 44.4933 33.5329 44.493C33.3688 44.5062 33.2051 44.4637 33.0684 44.3725C33.0164 44.3222 32.9764 44.2609 32.9514 44.1931C32.9264 44.1253 32.9171 44.0529 32.9241 43.981V38.1701C33.0083 38.0838 33.113 38.02 33.2285 37.9846C33.3636 37.9371 33.5061 37.9135 33.6494 37.9147C33.8294 37.9111 34.008 37.9473 34.1721 38.0207C34.346 38.1151 34.4875 38.259 34.5784 38.4339L36.348 41.4863C36.4269 41.6212 36.5045 41.7622 36.5833 41.9103C36.6622 42.0585 36.7374 42.2079 36.8126 42.356C36.8878 42.5042 36.9581 42.6476 37.026 42.7849C37.094 42.9222 37.1473 43.0451 37.2019 43.1463L37.2444 43.1354C37.187 42.5982 37.155 42.0665 37.1485 41.5405C37.1421 41.0145 37.1384 40.5006 37.1376 39.9986V37.9894C37.1946 37.9749 37.2698 37.9593 37.362 37.9412C37.4604 37.9234 37.5603 37.9145 37.6604 37.9147C37.8244 37.9024 37.9879 37.9447 38.1249 38.0352C38.1771 38.0856 38.2172 38.1472 38.2422 38.2151C38.2672 38.2831 38.2764 38.3558 38.2692 38.4279V44.2762C38.1806 44.3446 38.081 44.3975 37.9745 44.4328Z" fill="#2B2B2B"/>
<path d="M39.6854 44.3298C39.6255 44.2698 39.5787 44.1985 39.548 44.1203C39.5173 44.0422 39.5033 43.9587 39.5068 43.8751V38.5305C39.5029 38.4476 39.5167 38.3648 39.5474 38.2874C39.5782 38.2099 39.6252 38.1396 39.6854 38.0808C39.7479 38.024 39.8215 37.9798 39.9017 37.9511C39.982 37.9223 40.0674 37.9094 40.1529 37.9133H43.8416C43.8853 37.9683 43.9175 38.0311 43.9366 38.0981C43.9638 38.1821 43.9771 38.2699 43.9759 38.358C43.9848 38.4911 43.9429 38.6228 43.8581 38.7276C43.8179 38.7697 43.7687 38.8025 43.7139 38.8238C43.6592 38.8451 43.6003 38.8544 43.5414 38.8508H40.6874V40.6509H43.5072C43.5506 40.7056 43.5828 40.7679 43.6022 40.8344C43.6293 40.919 43.6426 41.0071 43.6415 41.0956C43.6528 41.2288 43.6111 41.3611 43.5249 41.4653C43.4837 41.5062 43.4341 41.5383 43.3793 41.5595C43.3246 41.5807 43.2659 41.5906 43.207 41.5885H40.6874V43.5597H43.8973C43.9345 43.6174 43.9646 43.679 43.9873 43.7433C44.0173 43.8269 44.0323 43.9148 44.0316 44.0033C44.041 44.1364 43.999 44.2682 43.9138 44.3729C43.8732 44.4144 43.8239 44.4468 43.7693 44.4681C43.7146 44.4894 43.6559 44.4989 43.5971 44.4961H40.1529C40.0674 44.5005 39.982 44.488 39.9017 44.4595C39.8213 44.4309 39.7478 44.3868 39.6854 44.3298Z" fill="#2B2B2B"/>
<path d="M47.2869 38.8572V44.4082C47.2138 44.4347 47.1383 44.4544 47.0613 44.4668C46.9575 44.4853 46.8522 44.4943 46.7467 44.4937C46.5753 44.5097 46.4036 44.4665 46.2616 44.3715C46.2085 44.3167 46.1681 44.2513 46.1432 44.1798C46.1184 44.1084 46.1096 44.0326 46.1175 43.9575V38.8572H44.1659C44.1251 38.7977 44.0934 38.7327 44.0719 38.6643C44.0457 38.577 44.033 38.4865 44.0343 38.3956C44.0246 38.2656 44.0658 38.1368 44.1496 38.0353C44.1899 37.994 44.2389 37.9617 44.2932 37.9406C44.3475 37.9195 44.4058 37.9102 44.4642 37.9131H49.2611C49.2966 37.9705 49.3244 38.0321 49.3438 38.0963C49.3702 38.1798 49.3833 38.2667 49.3827 38.354C49.3827 38.6903 49.2389 38.8584 48.9515 38.8584L47.2869 38.8572Z" fill="#2B2B2B"/>
<path d="M74.0371 38.8572V44.4083C73.9635 44.4347 73.8875 44.4543 73.8102 44.467C73.7064 44.4855 73.6011 44.4945 73.4956 44.4938C73.3242 44.5095 73.1526 44.4663 73.0105 44.3717C72.9578 44.3166 72.9178 44.2511 72.8931 44.1797C72.8685 44.1083 72.8598 44.0326 72.8676 43.9576V38.8572H70.916C70.8741 38.7983 70.8423 38.7331 70.822 38.6642C70.7947 38.5772 70.7816 38.4865 70.7831 38.3955C70.774 38.2656 70.8152 38.1371 70.8984 38.0352C70.9388 37.9941 70.9879 37.9619 71.0421 37.9409C71.0964 37.9198 71.1547 37.9103 71.213 37.9131H76.01C76.0466 37.9699 76.0744 38.0316 76.0927 38.0963C76.1197 38.1796 76.1328 38.2666 76.1316 38.354C76.1316 38.6903 75.9883 38.8584 75.7016 38.8584L74.0371 38.8572Z" fill="#2B2B2B"/>
<path d="M76.7225 44.3298C76.6625 44.2698 76.6158 44.1985 76.5851 44.1203C76.5544 44.0422 76.5403 43.9588 76.5439 43.8752V38.5306C76.5399 38.4477 76.5537 38.3649 76.5845 38.2875C76.6152 38.2101 76.6622 38.1397 76.7225 38.081C76.7847 38.0237 76.8582 37.9794 76.9386 37.9506C77.0189 37.9218 77.1044 37.9092 77.1899 37.9134H80.8786C80.9223 37.9684 80.9546 38.0312 80.9737 38.0982C81.0009 38.1823 81.0141 38.27 81.0129 38.3582C81.0219 38.4913 80.9799 38.6229 80.8951 38.7278C80.855 38.7698 80.8057 38.8026 80.751 38.8239C80.6962 38.8452 80.6373 38.8545 80.5784 38.851H77.7245V40.651H80.5442C80.5876 40.7057 80.6199 40.768 80.6392 40.8345C80.6664 40.919 80.6796 41.0072 80.6785 41.0957C80.6898 41.2289 80.6481 41.3612 80.562 41.4653C80.5207 41.5063 80.4711 41.5384 80.4164 41.5596C80.3616 41.5808 80.3029 41.5907 80.244 41.5885H77.7245V43.5598H80.9344C80.9715 43.6174 81.0017 43.679 81.0243 43.7433C81.0543 43.8269 81.0693 43.9148 81.0687 44.0033C81.0781 44.1365 81.0361 44.2683 80.9508 44.3729C80.9103 44.4144 80.861 44.4468 80.8063 44.4681C80.7517 44.4894 80.693 44.4989 80.6342 44.4961H77.1899C77.1045 44.5005 77.019 44.488 76.9387 44.4595C76.8584 44.4309 76.7848 44.3868 76.7225 44.3298Z" fill="#2B2B2B"/>
<path d="M85.613 42.7954H83.0488L82.5338 44.4113C82.4693 44.4395 82.402 44.4608 82.333 44.4749C82.2499 44.4905 82.1655 44.4978 82.0809 44.4965C81.9287 44.5016 81.7786 44.4597 81.6508 44.3765C81.5951 44.3378 81.5504 44.2852 81.5208 44.224C81.4913 44.1628 81.478 44.095 81.4823 44.0271C81.4825 43.9504 81.4929 43.8741 81.5133 43.8002C81.5349 43.727 81.5623 43.6442 81.5982 43.5529C81.689 43.256 81.8168 42.8738 81.9817 42.4064C82.1466 41.939 82.3219 41.4444 82.5075 40.9225C82.6931 40.4015 82.8803 39.8893 83.0691 39.3858C83.2591 38.8816 83.4275 38.4506 83.5638 38.0916C83.6666 38.037 83.7763 37.9966 83.89 37.9716C84.0374 37.9328 84.1892 37.913 84.3416 37.9128C84.5271 37.9102 84.7117 37.939 84.8877 37.998C84.9606 38.0196 85.0277 38.0574 85.0841 38.1085C85.1406 38.1596 85.1849 38.2228 85.2139 38.2933C85.3684 38.6935 85.5365 39.1493 85.7182 39.6608C85.8998 40.1722 86.0822 40.6988 86.2654 41.2407C86.447 41.7817 86.6223 42.3132 86.7912 42.835C86.9584 43.356 87.1102 43.8278 87.2428 44.2504C87.1736 44.3254 87.0893 44.3848 86.9955 44.4245C86.8821 44.4726 86.76 44.4963 86.637 44.4941C86.4915 44.5073 86.3461 44.4677 86.2272 44.3825C86.1249 44.2788 86.0523 44.1495 86.0169 44.0079L85.613 42.7954ZM84.3309 38.8984C84.2604 39.0881 84.1839 39.303 84.0991 39.5419C84.0142 39.7808 83.9282 40.0329 83.8326 40.2934C83.737 40.554 83.6498 40.8253 83.559 41.0966C83.4682 41.3679 83.3798 41.6296 83.2961 41.883H85.3669C85.276 41.602 85.1832 41.3187 85.0884 41.033C84.994 40.7484 84.902 40.4747 84.8148 40.2142C84.7276 39.9537 84.6451 39.71 84.5675 39.4807C84.4898 39.2514 84.4277 39.0569 84.3787 38.8948L84.3309 38.8984Z" fill="#2B2B2B"/>
<path d="M91.7258 42.762C91.6554 42.8186 91.5748 42.8617 91.4882 42.8891C91.3766 42.9267 91.2591 42.9447 91.1412 42.9423C91.0061 42.9453 90.8718 42.9218 90.7461 42.8733C90.6944 42.8542 90.6473 42.825 90.6073 42.7876C90.5673 42.7502 90.5354 42.7052 90.5134 42.6554C90.1811 41.9024 89.8939 41.235 89.6519 40.6531C89.4098 40.0712 89.217 39.5841 89.0734 39.1919H89.0193C88.9971 39.6955 88.9774 40.1588 88.9602 40.5817C88.9417 41.0042 88.922 41.417 88.8999 41.8225C88.8777 42.2281 88.8543 42.6385 88.8297 43.0573C88.8051 43.4762 88.7768 43.9278 88.7485 44.4108C88.6761 44.4352 88.6021 44.4547 88.5269 44.4689C88.4321 44.4872 88.3356 44.4961 88.2389 44.4955C87.85 44.4955 87.6543 44.3394 87.6543 44.027C87.6543 43.935 87.6543 43.7716 87.6715 43.5428C87.6888 43.314 87.6961 43.0295 87.7146 42.7063C87.7331 42.383 87.754 42.0271 87.7798 41.6361C87.8057 41.2451 87.8315 40.8504 87.8598 40.4485C87.8881 40.0466 87.9177 39.6531 87.9472 39.267C87.9768 38.8808 88.0051 38.5225 88.0334 38.1956C88.1193 38.1217 88.216 38.0609 88.3202 38.0152C88.4748 37.9471 88.6431 37.9144 88.8125 37.9196C89.004 37.9103 89.1945 37.9521 89.3639 38.0406C89.5065 38.1272 89.6196 38.2537 89.6888 38.4038C89.8045 38.6532 89.9239 38.9207 90.047 39.2089C90.1701 39.497 90.2931 39.7875 90.4162 40.0817C90.5393 40.3759 90.6624 40.6701 90.7731 40.9606C90.8839 41.2511 91.0009 41.5247 91.1092 41.7802H91.1633C91.2995 41.4259 91.4386 41.0744 91.5806 40.7257C91.7225 40.3771 91.8595 40.0434 91.9916 39.7246C92.1246 39.4017 92.2509 39.1003 92.3707 38.8203C92.4905 38.5402 92.6005 38.2844 92.7006 38.0527C92.7951 38.0124 92.8932 37.9803 92.9935 37.9571C93.1103 37.9289 93.2302 37.9147 93.3504 37.9147C93.5358 37.903 93.7209 37.9398 93.8871 38.0213C93.9448 38.0549 93.9951 38.0996 94.035 38.1526C94.0749 38.2056 94.1037 38.2659 94.1197 38.33C94.148 38.4571 94.1812 38.6689 94.2169 38.9631C94.2526 39.2573 94.2883 39.5975 94.3253 39.9812C94.3622 40.365 94.3966 40.7705 94.4336 41.2003C94.4705 41.6301 94.5025 42.0477 94.5308 42.446C94.5591 42.8443 94.5849 43.2171 94.6071 43.5537C94.6293 43.8902 94.6428 44.159 94.6502 44.3478C94.5711 44.3967 94.4853 44.4342 94.3954 44.4592C94.2914 44.4861 94.1841 44.4987 94.0766 44.4968C93.9383 44.4998 93.8015 44.4668 93.6803 44.4011C93.6203 44.361 93.5716 44.3068 93.5384 44.2433C93.5053 44.1798 93.4889 44.1092 93.4908 44.0379C93.4629 43.5537 93.4358 43.0779 93.4095 42.6106C93.3833 42.1433 93.3599 41.6995 93.3394 41.279C93.318 40.8601 93.2983 40.4731 93.2803 40.118C93.2618 39.7633 93.2458 39.4607 93.2311 39.2125H93.188C93.0518 39.5749 92.8659 40.0365 92.6304 40.5974C92.3949 41.1583 92.0934 41.8798 91.7258 42.762Z" fill="#2B2B2B"/>
<path d="M97.5957 43.9402C98.0294 43.9402 98.3496 43.8452 98.5563 43.6551C98.6567 43.5648 98.7367 43.4516 98.7904 43.3239C98.8441 43.1961 98.87 43.0572 98.8664 42.9173C98.8712 42.7994 98.8528 42.6818 98.8123 42.5719C98.7719 42.4621 98.7103 42.3625 98.6315 42.2795C98.4122 42.0842 98.1539 41.9448 97.8763 41.8718L97.1012 41.6217C96.8758 41.5477 96.6566 41.4536 96.4459 41.3404C96.2615 41.2438 96.0923 41.1173 95.9444 40.9652C95.8074 40.8242 95.7001 40.6536 95.6297 40.465C95.5533 40.2489 95.5163 40.0193 95.5205 39.7885C95.5098 39.5243 95.5592 39.2612 95.6645 39.0217C95.7698 38.7822 95.9279 38.5734 96.1253 38.4129C96.5277 38.0794 97.0758 37.9127 97.7695 37.9127C98.0325 37.9109 98.2951 37.9348 98.554 37.984C98.7689 38.0233 98.9786 38.0896 99.1788 38.1816C99.3336 38.2509 99.474 38.3521 99.5922 38.4792C99.6391 38.5281 99.6766 38.5865 99.7024 38.6508C99.7282 38.7152 99.7418 38.7844 99.7425 38.8543C99.7452 38.9694 99.7144 39.0825 99.6544 39.1782C99.5984 39.2676 99.5266 39.3445 99.443 39.4046C99.2373 39.2469 99.0088 39.1261 98.7666 39.0469C98.4676 38.9447 98.1551 38.8945 97.8411 38.8981C97.463 38.8981 97.1694 38.9794 96.9627 39.1407C96.8643 39.2129 96.7845 39.31 96.7304 39.4234C96.6762 39.5367 96.6495 39.6626 96.6526 39.7897C96.6493 39.8901 96.6671 39.9901 96.7047 40.0822C96.7423 40.1744 96.7987 40.2565 96.8699 40.3224C97.0814 40.4934 97.3243 40.6152 97.5827 40.6801L98.1817 40.8677C98.7603 41.0503 99.2101 41.3004 99.5311 41.618C99.8521 41.9356 100.008 42.3687 99.9997 42.9173C100.002 43.1963 99.9475 43.4725 99.8388 43.7264C99.7323 43.9714 99.5754 44.1876 99.3796 44.3591C99.1579 44.5467 98.9031 44.6849 98.6303 44.7656C98.2992 44.8652 97.9562 44.9132 97.6121 44.9081C97.3207 44.911 97.0299 44.8816 96.7442 44.8206C96.511 44.7721 96.2839 44.6945 96.0678 44.5892C95.9019 44.512 95.7524 44.3997 95.6285 44.2591C95.5321 44.1528 95.4768 44.0117 95.4735 43.8639C95.4695 43.7267 95.5139 43.5929 95.598 43.4888C95.676 43.3887 95.775 43.3095 95.8869 43.2574C96.0904 43.445 96.3183 43.6004 96.5634 43.7189C96.8872 43.8752 97.2402 43.9509 97.5957 43.9402Z" fill="#2B2B2B"/>
<path d="M55.8438 37.9134C55.8834 37.9682 55.913 38.0303 55.931 38.0965C55.9555 38.18 55.9677 38.2669 55.9671 38.3542C55.9671 38.6899 55.8298 38.8584 55.5576 38.8584H52.9471V40.812H55.4808C55.5179 40.8702 55.5473 40.9335 55.5681 41C55.5931 41.0854 55.6053 41.1744 55.6041 41.2638C55.6041 41.5934 55.4703 41.7583 55.2051 41.7583H52.9576V44.4224C52.9095 44.4363 52.8397 44.4522 52.7482 44.4701C52.6519 44.4885 52.5541 44.4975 52.4562 44.4969C52.0537 44.4969 51.8525 44.3223 51.8525 43.9707V38.5251C51.8488 38.4429 51.8615 38.3609 51.8898 38.2841C51.918 38.2074 51.9612 38.1377 52.0165 38.0794C52.0736 38.0228 52.1411 37.9788 52.2149 37.9503C52.2887 37.9217 52.3672 37.9092 52.4458 37.9134H55.8438Z" fill="#2B2B2B"/>
<path d="M62.5508 41.4113C62.5598 41.9262 62.4745 42.4384 62.2991 42.923C62.1506 43.3332 61.9149 43.7068 61.6081 44.0184C61.313 44.3115 60.958 44.5383 60.5672 44.6836C59.7202 44.9834 58.7949 44.9834 57.9479 44.6836C57.5559 44.5408 57.2004 44.3136 56.907 44.0184C56.6026 43.7056 56.3684 43.3323 56.2198 42.923C56.0444 42.4384 55.9591 41.9262 55.9681 41.4113C55.957 40.8974 56.0423 40.386 56.2198 39.9032C56.3741 39.4948 56.6114 39.1223 56.9171 38.8091C57.2126 38.5126 57.5695 38.2834 57.963 38.1376C58.7988 37.8376 59.7138 37.8376 60.5496 38.1376C60.9413 38.2841 61.2965 38.5132 61.5905 38.8091C61.8957 39.1227 62.133 39.495 62.2878 39.9032C62.4691 40.3853 62.5583 40.8967 62.5508 41.4113ZM61.3438 41.4113C61.3438 40.5893 61.1558 39.9641 60.7799 39.5356C60.404 39.1071 59.898 38.8925 59.262 38.8917C58.979 38.8816 58.6973 38.9347 58.4377 39.047C58.1781 39.1593 57.947 39.328 57.7616 39.5406C57.3815 39.9733 57.1915 40.5985 57.1915 41.4163C57.1915 42.234 57.3799 42.8592 57.7566 43.2919C57.9427 43.5063 58.1753 43.6761 58.4369 43.7885C58.6985 43.9008 58.9823 43.953 59.267 43.9409C59.903 43.9409 60.409 43.7245 60.7849 43.2919C61.1609 42.8592 61.3471 42.2324 61.3438 41.4113Z" fill="#2B2B2B"/>
<path d="M64.5016 44.3876C64.4301 44.412 64.3569 44.4311 64.2826 44.4448C64.1831 44.4633 64.082 44.4721 63.9808 44.471C63.8175 44.4862 63.654 44.4441 63.518 44.3519C63.4663 44.2992 63.4269 44.2357 63.4025 44.1659C63.3782 44.0961 63.3695 44.0217 63.3772 43.9481V38.5403C63.3743 38.4898 63.3816 38.4392 63.3985 38.3916C63.4153 38.3439 63.4415 38.3001 63.4754 38.2628C63.5536 38.1903 63.6483 38.1383 63.7512 38.1115C64.0009 38.0269 64.2601 37.9741 64.5229 37.9543C64.8211 37.9257 65.1147 37.9126 65.4177 37.9126C66.3203 37.9126 66.991 38.0956 67.4298 38.4617C67.8685 38.8278 68.0886 39.3439 68.0902 40.0102C68.1033 40.4318 67.9785 40.846 67.7351 41.1894C67.4735 41.5302 67.1159 41.7838 66.709 41.9172C66.8755 42.1268 67.0388 42.3349 67.199 42.5413C67.3576 42.7474 67.5091 42.9427 67.6511 43.1286C67.7931 43.3144 67.9221 43.4859 68.0369 43.6312C68.1518 43.7765 68.2429 43.9052 68.3127 44.0029C68.2865 44.1506 68.2042 44.2822 68.0831 44.3697C67.9713 44.4516 67.8367 44.4958 67.6984 44.496C67.5569 44.504 67.417 44.4619 67.3031 44.3769C67.191 44.2805 67.0927 44.1691 67.0108 44.0457L65.6674 42.097H64.5016V44.3876ZM65.5017 41.1906C65.9523 41.1906 66.3097 41.0929 66.574 40.8976C66.838 40.7022 66.9693 40.4044 66.9693 40.0066C66.9693 39.6088 66.8356 39.3217 66.5681 39.1264C66.3006 38.931 65.9077 38.8333 65.3845 38.8333C65.2247 38.8333 65.0661 38.8405 64.9111 38.8536C64.756 38.8667 64.6152 38.8858 64.4897 38.906V41.1954L65.5017 41.1906Z" fill="#2B2B2B"/>
<path d="M37.0725 32.0587C36.7104 32.1218 36.343 32.1529 35.975 32.1517C35.1799 32.1517 34.6099 32.008 34.2636 31.7241C33.9174 31.4403 33.7449 30.962 33.7449 30.2929V9.36736C33.9486 9.31784 34.2249 9.26228 34.5712 9.19948C34.9329 9.13639 35.2999 9.10526 35.6675 9.10648C36.4108 9.10648 36.9625 9.24296 37.3226 9.51591C37.6826 9.78886 37.8618 10.272 37.8601 10.9652V31.8594C37.6055 31.9521 37.3415 32.0189 37.0725 32.0587Z" fill="#2B2B2B"/>
<path d="M52.5599 18.0136C51.861 17.4453 50.9143 17.1612 49.7198 17.1612C48.912 17.1491 48.1072 17.2618 47.3357 17.4952C46.7114 17.6879 46.1066 17.9361 45.529 18.2367V31.8535C45.2888 31.9457 45.0398 32.0143 44.7856 32.0585C44.4401 32.1227 44.089 32.1538 43.7372 32.1513C43.0004 32.1513 42.4539 32.0151 42.0979 31.7426C41.7418 31.4701 41.5638 31.0123 41.5638 30.3693V18.1257C41.5638 17.5567 41.6782 17.0989 41.907 16.7525C42.1359 16.4061 42.5171 16.06 43.0508 15.7144C43.762 15.2948 44.6901 14.9114 45.8351 14.5642C47.0975 14.2021 48.4088 14.0273 49.7248 14.0458C52.189 14.0458 54.1208 14.5835 55.5202 15.6589C56.9196 16.7344 57.6173 18.3604 57.6131 20.5371V31.8535C57.3669 31.9466 57.1115 32.0153 56.8511 32.0585C56.4988 32.1221 56.1412 32.1531 55.7829 32.1513C55.0394 32.1513 54.4992 32.0151 54.1423 31.7426C53.7854 31.4701 53.6095 31.0131 53.6095 30.3693V20.6854C53.6095 19.4741 53.2596 18.5835 52.5599 18.0136Z" fill="#2B2B2B"/>
<path d="M65.4596 28.8391C65.9696 29.2117 66.6864 29.3981 67.61 29.3981C68.0534 29.394 68.4944 29.3314 68.9221 29.2117C69.3371 29.1057 69.7403 28.9561 70.1252 28.7653C70.2997 28.9716 70.4521 29.1962 70.5799 29.4356C70.7203 29.7108 70.7896 30.0181 70.7812 30.3284C70.7812 30.9736 70.4591 31.5075 69.8149 31.9301C69.1707 32.3527 68.193 32.5637 66.8818 32.5628C65.0598 32.5628 63.608 32.1471 62.5264 31.3156C61.4449 30.484 60.9045 29.1129 60.9053 27.2023V9.81529C61.0747 9.7669 61.3174 9.70399 61.6336 9.6302C61.9685 9.55303 62.311 9.51528 62.6543 9.51769C63.3593 9.51769 63.8756 9.65439 64.2032 9.9278C64.5308 10.2012 64.6946 10.6601 64.6946 11.3045V14.9907H70.3431C70.4615 15.1882 70.5535 15.401 70.6166 15.6235C70.7024 15.9005 70.7455 16.1894 70.7445 16.48C70.7445 17.547 70.2949 18.0805 69.3957 18.0805H64.6946V26.9422C64.6946 27.835 64.9496 28.4673 65.4596 28.8391Z" fill="#2B2B2B"/>
<path d="M76.7944 31.8535C76.5547 31.9453 76.3064 32.014 76.0529 32.0585C75.7083 32.1227 75.3581 32.1538 75.0073 32.1513C74.2723 32.1513 73.7273 32.0151 73.3722 31.7426C73.017 31.4701 72.8395 31.0124 72.8395 30.3694V18.1997C72.8395 17.5824 72.966 17.0817 73.2189 16.6975C73.4719 16.3133 73.8777 15.9484 74.4363 15.6028C75.1721 15.1583 76.1106 14.7874 77.2517 14.49C78.4811 14.1827 79.7462 14.0332 81.0151 14.0451C83.2456 14.0451 84.3612 14.6632 84.362 15.8994C84.3642 16.1846 84.3127 16.4678 84.21 16.7349C84.1191 16.9739 84.0045 17.2036 83.8677 17.4209C83.6139 17.3718 83.2971 17.3224 82.9172 17.2726C82.5136 17.2215 82.1069 17.1965 81.6998 17.1978C80.7646 17.189 79.832 17.2952 78.924 17.5137C78.1813 17.6886 77.465 17.9569 76.7932 18.3118L76.7944 31.8535Z" fill="#2B2B2B"/>
<path d="M91.999 14.0446C94.3185 14.0446 96.1643 14.5474 97.5364 15.5531C98.9085 16.5587 99.5925 18.1422 99.5884 20.3037V28.984C99.5884 29.5554 99.4576 29.9965 99.1958 30.3072C98.89 30.6542 98.53 30.9498 98.1296 31.1825C97.3393 31.6111 96.4968 31.9367 95.6229 32.151C94.461 32.4412 93.266 32.5792 92.0683 32.5614C89.6491 32.5614 87.7599 32.0893 86.4008 31.145C85.0417 30.2007 84.3621 28.8096 84.3621 26.9719C84.3621 25.3327 84.8922 24.0784 85.9522 23.2092C87.0123 22.34 88.54 21.8061 90.5353 21.6075L95.7347 21.0857V20.2661C95.7347 19.1733 95.3794 18.3783 94.6686 17.8811C93.9578 17.384 92.9667 17.1358 91.6951 17.1366C90.7199 17.1336 89.7494 17.2715 88.8139 17.5458C87.9673 17.7907 87.1417 18.1024 86.3449 18.478C86.0915 18.2752 85.8763 18.0292 85.7091 17.7516C85.534 17.4655 85.443 17.1363 85.4465 16.8013C85.4311 16.4275 85.5434 16.0597 85.765 15.7577C86.032 15.4446 86.3723 15.2018 86.7558 15.0507C87.5133 14.6832 88.3198 14.426 89.1507 14.2867C90.0909 14.1211 91.0442 14.0401 91.999 14.0446ZM92.0731 29.5058C92.8439 29.5182 93.613 29.4307 94.361 29.2455C95.0094 29.0711 95.4705 28.8847 95.7445 28.6862V23.9537L91.6671 24.3629C90.5195 24.488 89.6588 24.7427 89.085 25.1269C88.5112 25.511 88.2247 26.101 88.2255 26.8968C88.2255 27.7168 88.5371 28.3565 89.1604 28.8157C89.7836 29.2749 90.7545 29.505 92.0731 29.5058Z" fill="#2B2B2B"/>
<path d="M26.6087 9.7592C26.5421 9.53051 26.4453 9.31158 26.321 9.10808H1.49736C1.29338 9.09829 1.08968 9.13257 0.900284 9.20855C0.710887 9.28453 0.540284 9.40041 0.400207 9.54823C0.133639 9.84166 0.000355517 10.2689 0.000355517 10.8299C-0.00453786 11.1538 0.0411099 11.4765 0.135671 11.7866C0.207235 12.0319 0.317511 12.2643 0.462379 12.4753H7.26716V30.6498C7.26716 31.3385 7.43417 31.8296 7.7682 32.1231C8.101 32.4153 8.66542 32.5632 9.46025 32.5632C9.82813 32.5643 10.1954 32.5323 10.5574 32.4674C10.8265 32.4246 11.0904 32.3543 11.3449 32.2576V12.4753H15.3605V30.6498C15.3605 31.3385 15.5275 31.8296 15.8615 32.1231C16.1943 32.4153 16.7588 32.5632 17.5536 32.5632C17.9215 32.5644 18.2887 32.5323 18.6507 32.4674C18.9203 32.4243 19.1846 32.3536 19.4395 32.2564V12.4753H25.2483C26.2487 12.4753 26.7489 11.8759 26.7489 10.6771C26.7504 10.3657 26.7031 10.0561 26.6087 9.7592Z" fill="#2B2B2B"/>
<path d="M17.4884 6.6371C18.1803 6.63733 18.8567 6.44445 19.4321 6.08285C20.0075 5.72124 20.4561 5.20716 20.721 4.60561C20.986 4.00407 21.0554 3.34208 20.9206 2.70338C20.7858 2.06468 20.4527 1.47796 19.9636 1.01742C19.4744 0.556878 18.8512 0.243209 18.1726 0.116082C17.494 -0.0110448 16.7906 0.0540811 16.1514 0.303223C15.5122 0.552365 14.9658 0.974331 14.5814 1.51575C14.1969 2.05718 13.9918 2.69373 13.9918 3.34492C13.9928 4.21756 14.3615 5.0542 15.017 5.67136C15.6724 6.28852 16.5612 6.63582 17.4884 6.6371Z" fill="#2B2B2B"/>
<path d="M9.25923 6.6371C11.1911 6.6371 12.7572 5.16314 12.7572 3.34492C12.7572 1.52669 11.1911 0.0527344 9.25923 0.0527344C7.32737 0.0527344 5.76129 1.52669 5.76129 3.34492C5.76129 5.16314 7.32737 6.6371 9.25923 6.6371Z" fill="#2B2B2B"/>
</svg>
