<svg width="125" height="20" viewBox="0 0 125 20" fill="none" xmlns="http://www.w3.org/2000/svg">
<path d="M95.4613 9.04727V7.3985H93.3764V4.83877L93.3061 4.85976L91.348 5.4477L91.3098 5.45931V7.39999H88.2192V6.31892C88.2192 5.8153 88.3337 5.43008 88.5598 5.1734C88.7858 4.91672 89.1054 4.79044 89.5144 4.79044C89.8275 4.79459 90.1361 4.86354 90.4201 4.99278L90.4965 5.02651V3.2923L90.4583 3.27918C90.1723 3.17801 89.7828 3.1293 89.3006 3.1293C88.6923 3.1293 88.1397 3.25895 87.6586 3.51638C87.1838 3.76714 86.7926 4.14674 86.5318 4.60982C86.2668 5.0771 86.1324 5.6167 86.1324 6.214V7.40262H84.6814V9.05139H86.1324V15.9882H88.2165V9.04727H91.3072V13.4581C91.3072 15.2748 92.1804 16.1936 93.9037 16.1936C94.2014 16.1919 94.498 16.1596 94.7888 16.0973C95.0981 16.0321 95.3089 15.9665 95.433 15.8968L95.4605 15.8811V14.2195L95.3757 14.2746C95.2462 14.3557 95.1044 14.4163 94.9557 14.4541C94.8224 14.4945 94.6842 14.5176 94.5448 14.5227C94.1412 14.5227 93.843 14.4159 93.6578 14.2057C93.4726 13.9955 93.3752 13.6215 93.3752 13.1021V9.04727H95.4613ZM80.0294 14.5231C79.2729 14.5231 78.6765 14.2769 78.2565 13.792C77.8364 13.3071 77.6192 12.6101 77.6192 11.7273C77.6192 10.8167 77.8334 10.104 78.2565 9.60823C78.6795 9.11247 79.2676 8.86553 80.0129 8.86553C80.7354 8.86553 81.3112 9.10423 81.7225 9.5775C82.1337 10.0508 82.3468 10.7582 82.3468 11.6797C82.3468 12.612 82.1494 13.3285 81.7595 13.8077C81.3696 14.287 80.7908 14.5249 80.0298 14.5249L80.0294 14.5231ZM80.1225 7.19502C78.6792 7.19502 77.5332 7.60984 76.7157 8.42823C75.8982 9.24662 75.485 10.3794 75.485 11.7951C75.485 13.14 75.8894 14.2214 76.6867 15.0095C77.484 15.7975 78.5688 16.197 79.9114 16.197C81.3101 16.197 82.4315 15.7761 83.2506 14.9465C84.0697 14.1169 84.4809 12.9957 84.4809 11.6115C84.4809 10.2456 84.0926 9.15594 83.3266 8.37352C82.5606 7.5911 81.4819 7.19352 80.1225 7.19352V7.19502ZM72.1252 7.19352C71.1434 7.19352 70.3305 7.43972 69.7112 7.92573C69.0918 8.41174 68.7703 9.05477 68.7703 9.83044C68.7703 10.2336 68.8386 10.5919 68.973 10.8958C69.113 11.2067 69.3265 11.4803 69.5958 11.6939C69.8719 11.9188 70.298 12.1515 70.8624 12.3894C71.337 12.5809 71.691 12.7431 71.9159 12.8709C72.1408 12.9987 72.2917 13.122 72.3799 13.2456C72.4681 13.3693 72.5089 13.5301 72.5089 13.7328C72.5089 14.3095 72.0687 14.5905 71.1625 14.5905C70.8265 14.5905 70.4431 14.5216 70.0231 14.3856C69.6062 14.252 69.2128 14.0562 68.8566 13.8051L68.7703 13.7433V15.7121L68.8024 15.7267C69.0971 15.8601 69.4687 15.9729 69.907 16.0613C70.2948 16.1447 70.6901 16.1897 71.0869 16.1955C72.1523 16.1955 73.0099 15.9478 73.6358 15.4591C74.2616 14.9705 74.585 14.311 74.585 13.5083C74.585 12.9294 74.4132 12.4333 74.0745 12.0327C73.7358 11.6321 73.1539 11.2709 72.3398 10.9486C71.6906 10.693 71.2752 10.481 71.1037 10.3183C70.9384 10.1609 70.8544 9.93836 70.8544 9.65657C70.8544 9.407 70.9583 9.2069 71.1709 9.04465C71.3836 8.88239 71.6834 8.7992 72.0576 8.7992C72.4156 8.80082 72.7714 8.85449 73.1134 8.95846C73.4406 9.0519 73.7515 9.1934 74.0355 9.37815L74.1207 9.43511V7.5675L74.0879 7.55363C73.8492 7.45321 73.5342 7.36627 73.1516 7.29732C72.8133 7.23228 72.4698 7.19741 72.1252 7.19315V7.19352ZM63.3374 14.5231C62.5813 14.5231 61.9849 14.2769 61.5645 13.792C61.1441 13.3071 60.9276 12.6101 60.9276 11.7273C60.9276 10.8167 61.1418 10.104 61.5649 9.60823C61.988 9.11247 62.5756 8.86553 63.3214 8.86553C64.0438 8.86553 64.6196 9.10423 65.0313 9.5775C65.4429 10.0508 65.6556 10.7582 65.6556 11.6797C65.6556 12.612 65.4578 13.3285 65.0679 13.8077C64.6781 14.287 64.0992 14.5249 63.3382 14.5249L63.3374 14.5231ZM63.4313 7.19502C61.9876 7.19502 60.8413 7.60984 60.0245 8.42823C59.2077 9.24662 58.7934 10.3794 58.7934 11.7951C58.7934 13.1404 59.1982 14.2214 59.9955 15.0095C60.7928 15.7975 61.8776 16.197 63.2202 16.197C64.6189 16.197 65.7403 15.7761 66.5594 14.9465C67.3785 14.1169 67.7897 12.9957 67.7897 11.6115C67.7897 10.2456 67.4014 9.15594 66.635 8.37352C65.8686 7.5911 64.7903 7.19352 63.4313 7.19352V7.19502ZM55.6302 8.88764V7.39999H53.5729V15.9879H55.6314V11.5946C55.6314 10.8478 55.804 10.234 56.1446 9.77048C56.4806 9.31257 56.9289 9.08062 57.4757 9.08062C57.6851 9.08396 57.8931 9.11394 58.0947 9.1698C58.318 9.22901 58.4796 9.29309 58.575 9.36016L58.6613 9.42199V7.38538L58.6281 7.37114C58.4372 7.29133 58.1653 7.25086 57.822 7.25086C57.3188 7.24595 56.8304 7.4178 56.4451 7.73537C56.0972 8.01754 55.8456 8.40462 55.6531 8.88726L55.6302 8.88764ZM49.8842 7.19315C48.9399 7.19315 48.0976 7.39175 47.3812 7.78334C46.674 8.16502 46.0991 8.74528 45.7301 9.44972C45.354 10.1617 45.1631 10.9913 45.1631 11.9176C45.1631 12.7293 45.3483 13.4739 45.7141 14.1285C46.0669 14.7732 46.6017 15.3043 47.2545 15.6581C47.9097 16.0141 48.6673 16.1947 49.5051 16.1947C50.4833 16.1947 51.3184 16.0028 51.9871 15.6244L52.0142 15.609V13.7586L51.9275 13.8208C51.6194 14.0399 51.2801 14.2132 50.9206 14.3353C50.5567 14.4601 50.2248 14.5227 49.9343 14.5227C49.1263 14.5227 48.4779 14.2746 48.0071 13.7856C47.5363 13.2966 47.2965 12.6082 47.2965 11.7434C47.2965 10.8725 47.5458 10.1673 48.0372 9.6472C48.5287 9.12709 49.1771 8.86516 49.9682 8.86516C50.6449 8.86516 51.3047 9.08999 51.9279 9.53403L52.0142 9.59549V7.64694L51.9863 7.63157C51.7515 7.50267 51.4315 7.39587 51.034 7.31531C50.6555 7.23667 50.2699 7.19612 49.8831 7.19427L49.8842 7.19315ZM43.7442 7.40112H41.6856V15.9879H43.7442V7.39999V7.40112ZM42.7369 3.74196C42.4103 3.73663 42.0948 3.8578 41.8586 4.07921C41.74 4.18605 41.646 4.31641 41.5826 4.46164C41.5193 4.60687 41.4882 4.76365 41.4913 4.92159C41.4882 5.07653 41.519 5.23032 41.5818 5.37254C41.6445 5.51477 41.7376 5.64212 41.8548 5.74597C42.0938 5.96398 42.4099 6.082 42.7361 6.07498C43.0631 6.08141 43.3801 5.96368 43.6208 5.74635C43.7394 5.6429 43.8337 5.51547 43.8972 5.37283C43.9608 5.23019 43.992 5.07573 43.9889 4.92009C43.9906 4.76457 43.9596 4.61037 43.898 4.46708C43.8364 4.32378 43.7454 4.19444 43.6308 4.08708C43.3932 3.857 43.0924 3.74047 42.7357 3.74047L42.7369 3.74196ZM37.6007 6.76634V15.9879H39.7008V4.00427H36.7938L33.0979 12.9054L29.5117 4.00427H26.4855V15.9879H28.4597V6.76559H28.5276L32.3148 15.9879H33.804L37.5323 6.76634H37.6007Z" fill="#706D6E"/>
<path d="M9.68397 9.50331H0V0H9.68397V9.50331Z" fill="#F1511B"/>
<path d="M20.3764 9.50331H10.6917V0H20.3764V9.50331Z" fill="#80CC28"/>
<path d="M9.68359 19.9996H0V10.4963H9.68359V19.9996Z" fill="#00ADEF"/>
<path d="M20.3764 19.9996H10.6917V10.4963H20.3764V19.9996Z" fill="#FBBC09"/>
<path d="M106.42 12.3677C106.42 13.5041 106.006 14.4193 105.176 15.1132C104.347 15.8072 103.258 16.1541 101.909 16.1538C100.687 16.1538 99.7138 15.9255 98.9899 15.4689V13.9228C99.8554 14.5898 100.846 14.9234 101.961 14.9236C102.863 14.9236 103.581 14.7055 104.115 14.2694C104.649 13.8332 104.917 13.2431 104.917 12.4992C104.917 10.8542 103.723 10.0315 101.336 10.0313H100.271V8.80968H101.282C103.395 8.80968 104.451 8.03663 104.451 6.49053C104.451 5.06185 103.646 4.3475 102.034 4.3475C101.127 4.3475 100.277 4.64615 99.4836 5.24346V3.84687C100.301 3.36673 101.274 3.12666 102.402 3.12666C103.464 3.12666 104.322 3.40345 104.975 3.95704C105.628 4.51063 105.955 5.23509 105.954 6.13043C105.954 7.78869 105.102 8.8549 103.396 9.32905V9.36277C104.302 9.4627 105.034 9.78483 105.59 10.3292C106.146 10.8735 106.423 11.553 106.42 12.3677Z" fill="#706D6E"/>
<path d="M101.908 16.4326C100.636 16.4326 99.602 16.1872 98.8356 15.7034L98.7069 15.6206V13.3498L99.1651 13.7036C99.9765 14.3282 100.917 14.6449 101.961 14.6449C102.79 14.6449 103.454 14.4466 103.933 14.055C104.404 13.6713 104.633 13.1625 104.633 12.4992C104.633 11.0262 103.554 10.3101 101.336 10.3101H99.9861V8.5309H101.281C102.27 8.5309 103.012 8.35441 103.488 8.00629C103.944 7.67242 104.166 7.17666 104.166 6.49055C104.166 5.21874 103.488 4.62631 102.033 4.62631C101.193 4.62631 100.394 4.90847 99.6554 5.46456L99.1972 5.80855V3.68876L99.3354 3.60782C100.196 3.10494 101.227 2.84788 102.4 2.84788C103.529 2.84788 104.457 3.14991 105.16 3.74721C105.875 4.35314 106.237 5.15541 106.237 6.13194C106.237 7.61321 105.599 8.6673 104.338 9.27622C104.885 9.44359 105.383 9.73781 105.789 10.134C106.397 10.7301 106.705 11.483 106.705 12.3688C106.705 13.5851 106.253 14.5797 105.362 15.3265C104.482 16.0602 103.32 16.4326 101.908 16.4326ZM99.2732 15.3126C99.9342 15.6873 100.82 15.8747 101.908 15.8747C103.181 15.8747 104.219 15.5468 104.991 14.9004C105.763 14.254 106.136 13.4274 106.136 12.3669C106.136 11.6231 105.892 11.0209 105.388 10.5263C104.884 10.0317 104.204 9.73188 103.364 9.6397L103.111 9.61197V9.11734L103.318 9.06001C104.902 8.61934 105.671 7.6608 105.671 6.13006C105.671 5.3113 105.383 4.66865 104.79 4.16727C104.197 3.6659 103.388 3.40472 102.4 3.40472C101.394 3.40472 100.508 3.60744 99.7658 4.00764V4.71249C100.478 4.28456 101.238 4.06797 102.032 4.06797C104.265 4.06797 104.734 5.38512 104.734 6.4898C104.734 7.35166 104.428 8.01229 103.827 8.45259C103.251 8.87415 102.394 9.08961 101.281 9.08961H100.555V9.75249H101.336C102.583 9.75249 103.541 9.97733 104.184 10.4202C104.859 10.8849 105.201 11.5845 105.201 12.4992C105.201 13.327 104.895 13.9947 104.296 14.4852C103.712 14.9622 102.926 15.2039 101.961 15.2039C100.979 15.2039 100.078 14.9544 99.274 14.4605L99.2732 15.3126Z" fill="#706D6E"/>
<path d="M115.075 9.12298C114.407 8.41101 113.518 8.05515 112.408 8.0554C111.047 8.0554 110.071 8.64995 109.48 9.83907H109.444C109.444 8.17606 109.786 6.84542 110.47 5.84716C111.153 4.84891 112.062 4.34928 113.195 4.34828C113.924 4.34689 114.643 4.51865 115.29 4.84891V3.48754C114.752 3.24747 114.042 3.12744 113.159 3.12744C112.121 3.12744 111.204 3.42622 110.41 4.02377C109.615 4.62133 109.002 5.47182 108.571 6.57525C108.138 7.67843 107.922 8.95036 107.922 10.391C107.922 12.2069 108.287 13.6215 109.018 14.6348C109.748 15.648 110.756 16.1545 112.039 16.1542C112.803 16.1542 113.492 15.9755 114.107 15.618C114.721 15.2605 115.203 14.7569 115.553 14.1071C115.903 13.4576 116.077 12.7345 116.077 11.9379C116.077 10.7722 115.743 9.83395 115.075 9.12298ZM114.574 12.1207C114.574 12.9521 114.346 13.6266 113.89 14.1442C113.434 14.6619 112.838 14.921 112.104 14.9218C111.364 14.9218 110.75 14.6245 110.264 14.03C109.777 13.4354 109.534 12.6962 109.535 11.8124C109.535 11.1101 109.779 10.5116 110.268 10.0167C110.757 9.52181 111.36 9.27449 112.076 9.27474C112.864 9.27474 113.478 9.52905 113.916 10.0377C114.355 10.5463 114.574 11.2403 114.574 12.1196V12.1207Z" fill="#706D6E"/>
<path d="M112.04 16.433C110.666 16.433 109.572 15.8822 108.787 14.7959C108.024 13.7403 107.639 12.2583 107.639 10.391C107.639 8.92323 107.864 7.60571 108.307 6.47518C108.757 5.32741 109.407 4.42845 110.238 3.80267C111.078 3.16976 112.061 2.84863 113.159 2.84863C114.079 2.84863 114.836 2.97828 115.408 3.23384L115.574 3.30878V5.3068L115.16 5.09808C114.553 4.78872 113.879 4.62753 113.195 4.62818C112.153 4.62818 111.338 5.07784 110.705 6.00265C110.191 6.7521 109.878 7.72113 109.77 8.88801C110.411 8.15018 111.295 7.77733 112.407 7.77733C113.595 7.77733 114.563 8.16704 115.284 8.93485C115.999 9.69478 116.362 10.7054 116.362 11.9386C116.362 12.7776 116.174 13.5499 115.805 14.2379C115.432 14.9326 114.91 15.4782 114.252 15.8589C113.595 16.2397 112.853 16.433 112.04 16.433ZM113.159 3.40471C112.189 3.40471 111.323 3.68688 110.584 4.24334C109.837 4.80542 109.247 5.62344 108.838 6.67378C108.418 7.74024 108.207 8.99031 108.207 10.3895C108.207 12.1391 108.558 13.5124 109.251 14.474C109.932 15.4172 110.845 15.8758 112.038 15.8758C112.748 15.8758 113.394 15.7087 113.961 15.3786C114.528 15.0484 114.977 14.5796 115.301 13.9775C115.624 13.3753 115.791 12.6854 115.791 11.9382C115.791 10.8497 115.479 9.96608 114.865 9.31257C114.247 8.65456 113.443 8.33492 112.406 8.33492C111.152 8.33492 110.278 8.86702 109.733 9.96196L109.656 10.1186H109.16V9.8398C109.16 8.1277 109.522 6.73224 110.234 5.69238C110.97 4.61656 111.966 4.07097 113.195 4.07097C113.816 4.07 114.431 4.18721 115.006 4.41608V3.67339C114.528 3.49614 113.907 3.40471 113.159 3.40471ZM112.104 15.2013C111.276 15.2013 110.582 14.8641 110.042 14.2049C109.517 13.5645 109.251 12.7596 109.251 11.8131C109.251 11.037 109.525 10.3674 110.065 9.82294C110.604 9.27847 111.284 8.99855 112.076 8.99855C112.949 8.99855 113.642 9.28821 114.133 9.86041C114.614 10.4225 114.859 11.1817 114.859 12.1226C114.859 13.0186 114.605 13.7613 114.105 14.3293C113.595 14.9087 112.921 15.2028 112.104 15.2028V15.2013ZM112.076 9.55426C111.434 9.55426 110.91 9.76898 110.473 10.2115C110.036 10.6541 109.82 11.1783 109.82 11.8131C109.82 12.6292 110.044 13.3165 110.486 13.8557C110.919 14.3859 111.449 14.6426 112.105 14.6426C112.761 14.6426 113.272 14.4178 113.675 13.9617C114.084 13.4975 114.291 12.8777 114.291 12.1192C114.291 11.3136 114.092 10.6736 113.7 10.2168C113.314 9.77273 112.783 9.55576 112.076 9.55576V9.55426Z" fill="#706D6E"/>
<path d="M124.716 12.0866C124.716 13.3107 124.303 14.2949 123.477 15.0391C122.651 15.7833 121.548 16.1546 120.169 16.1531C118.975 16.1531 118.089 15.9783 117.51 15.6285V14.0997C118.381 14.6512 119.273 14.9267 120.186 14.9259C121.093 14.9259 121.824 14.6768 122.379 14.1787C122.933 13.6806 123.211 13.0135 123.212 12.1773C123.212 11.3564 122.932 10.7134 122.372 10.2483C121.812 9.78311 120.998 9.55054 119.928 9.55054C119.074 9.55054 118.349 9.58526 117.752 9.65471L118.19 3.33916H124.125V4.63757H119.461L119.202 8.33569L120.383 8.2911C121.72 8.2911 122.777 8.62235 123.553 9.28486C124.329 9.94737 124.717 10.8813 124.716 12.0866" fill="#706D6E"/>
<path d="M120.169 16.4319C118.908 16.4319 117.99 16.2445 117.361 15.8638L117.226 15.7821V13.5863L117.664 13.8639C118.483 14.3826 119.332 14.6456 120.185 14.6456C121.014 14.6456 121.687 14.4189 122.185 13.9711C122.684 13.5233 122.927 12.9369 122.927 12.1754C122.927 11.4354 122.684 10.874 122.186 10.4589C121.68 10.0399 120.92 9.82744 119.926 9.82744C119.086 9.82744 118.364 9.86154 117.784 9.92974L117.444 9.96946L117.923 3.05848H124.408V4.91597H119.727L119.507 8.0449L120.383 8.01192C121.784 8.01192 122.913 8.3694 123.739 9.07388C124.576 9.78772 124.999 10.8013 124.999 12.0863C124.999 13.385 124.551 14.447 123.668 15.244C122.792 16.0328 121.615 16.4319 120.169 16.4319ZM117.795 15.4648C118.327 15.7368 119.125 15.8743 120.169 15.8743C121.467 15.8743 122.516 15.5243 123.285 14.8333C124.054 14.1424 124.431 13.2389 124.431 12.0866C124.431 10.9546 124.082 10.107 123.365 9.49507C122.648 8.88315 121.645 8.57063 120.387 8.56988L118.895 8.62609L119.194 4.35876H123.839V3.61644H118.455L118.058 9.34143C118.593 9.29422 119.22 9.27023 119.929 9.27023C121.061 9.27023 121.944 9.52692 122.556 10.0335C123.181 10.554 123.498 11.2746 123.498 12.1758C123.498 13.0901 123.186 13.8325 122.572 14.3829C121.965 14.927 121.163 15.2032 120.188 15.2032C119.375 15.2032 118.573 14.996 117.796 14.5864L117.795 15.4648Z" fill="#706D6E"/>
</svg>
