<svg width="40" height="40" viewBox="0 0 40 40" fill="none" xmlns="http://www.w3.org/2000/svg">
<g clip-path="url(#clip0)">
<path d="M18.8405 23.4416C25.3464 23.4416 30.6205 18.194 30.6205 11.7208C30.6205 5.24757 25.3464 0 18.8405 0C12.3346 0 7.06047 5.24757 7.06047 11.7208C7.06047 18.194 12.3346 23.4416 18.8405 23.4416Z" fill="#036C70"/>
<path d="M29.8455 32.0779C35.4097 32.0779 39.9205 27.5899 39.9205 22.0536C39.9205 16.5173 35.4097 12.0292 29.8455 12.0292C24.2812 12.0292 19.7705 16.5173 19.7705 22.0536C19.7705 27.5899 24.2812 32.0779 29.8455 32.0779Z" fill="#1A9BA1"/>
<path d="M20.0805 39.4805C24.5319 39.4805 28.1405 35.8901 28.1405 31.461C28.1405 27.032 24.5319 23.4416 20.0805 23.4416C15.6291 23.4416 12.0205 27.032 12.0205 31.461C12.0205 35.8901 15.6291 39.4805 20.0805 39.4805Z" fill="#37C6D0"/>
<path opacity="0.1" d="M20.9076 8.63636H7.47339C6.99824 10.3752 6.93218 12.1996 7.28033 13.968C7.62848 15.7363 8.38149 17.4011 9.48091 18.833C10.5803 20.265 11.9966 21.4256 13.6198 22.2248C15.243 23.0241 17.0294 23.4404 18.8405 23.4416C19.184 23.4416 19.5237 23.4255 19.861 23.3971L19.8672 23.444C17.7672 23.4993 15.7718 24.3683 14.3062 25.8657C12.8405 27.3632 12.0204 29.3708 12.0205 31.461C12.0205 31.6683 12.0283 31.8739 12.044 32.0779H20.9076C21.3455 32.0766 21.7652 31.9029 22.0749 31.5948C22.3846 31.2866 22.5592 30.8691 22.5605 30.4333V10.281C22.5592 9.8452 22.3846 9.42764 22.0749 9.1195C21.7652 8.81136 21.3455 8.63767 20.9076 8.63636Z" fill="black"/>
<path opacity="0.2" d="M19.6675 9.87013H7.20555C6.93751 11.5446 7.03762 13.2571 7.49898 14.8894C7.96035 16.5217 8.772 18.035 9.87797 19.3251C10.9839 20.6151 12.3579 21.6512 13.9052 22.3619C15.4525 23.0725 17.1363 23.4409 18.8405 23.4416C19.1839 23.4416 19.5237 23.4255 19.861 23.3971L19.8672 23.444C18.6692 23.4764 17.4935 23.774 16.4256 24.3152C15.3577 24.8564 14.4244 25.6275 13.6936 26.5725C12.9628 27.5176 12.4528 28.6128 12.2007 29.7785C11.9486 30.9442 11.9607 32.1512 12.2362 33.3117H19.6675C20.1055 33.3104 20.5252 33.1367 20.8349 32.8286C21.1446 32.5204 21.3192 32.1029 21.3205 31.6671V11.5147C21.3192 11.079 21.1446 10.6614 20.8349 10.3533C20.5252 10.0451 20.1055 9.87143 19.6675 9.87013Z" fill="black"/>
<path opacity="0.2" d="M19.6675 9.87013H7.20555C6.93751 11.5446 7.03762 13.2571 7.49898 14.8894C7.96035 16.5217 8.772 18.035 9.87797 19.3251C10.9839 20.6151 12.3579 21.6512 13.9052 22.3619C15.4525 23.0725 17.1363 23.4409 18.8405 23.4416C19.1839 23.4416 19.5237 23.4255 19.861 23.3971L19.8672 23.444C17.874 23.4961 15.971 24.2815 14.5259 25.6482C13.0808 27.015 12.1961 28.8662 12.0428 30.8442H19.6675C20.1055 30.8429 20.5252 30.6692 20.8349 30.361C21.1446 30.0529 21.3192 29.6353 21.3205 29.1995V11.5147C21.3192 11.079 21.1446 10.6614 20.8349 10.3533C20.5252 10.0451 20.1055 9.87143 19.6675 9.87013Z" fill="black"/>
<path opacity="0.2" d="M18.4275 9.87013H7.20555C6.93751 11.5446 7.03762 13.2571 7.49898 14.8894C7.96035 16.5217 8.772 18.035 9.87797 19.3251C10.9839 20.6151 12.3579 21.6512 13.9052 22.3619C15.4525 23.0725 17.1363 23.4409 18.8405 23.4416C19.1839 23.4416 19.5237 23.4255 19.861 23.3971L19.8672 23.444C17.874 23.4961 15.971 24.2815 14.5259 25.6482C13.0808 27.015 12.1961 28.8662 12.0428 30.8442H18.4275C18.8655 30.8429 19.2852 30.6692 19.5949 30.361C19.9046 30.0529 20.0792 29.6353 20.0805 29.1995V11.5147C20.0792 11.079 19.9046 10.6614 19.5949 10.3533C19.2852 10.0451 18.8655 9.87143 18.4275 9.87013Z" fill="black"/>
<path d="M1.8934 9.87013H18.4276C18.8659 9.87013 19.2864 10.0434 19.5964 10.3518C19.9063 10.6603 20.0805 11.0786 20.0805 11.5147V27.9658C20.0805 28.402 19.9063 28.8203 19.5964 29.1287C19.2864 29.4371 18.8659 29.6104 18.4276 29.6104H1.8934C1.45501 29.6104 1.03459 29.4371 0.724604 29.1287C0.414621 28.8203 0.240475 28.402 0.240475 27.9658L0.240475 11.5147C0.240475 11.0786 0.414621 10.6603 0.724604 10.3518C1.03459 10.0434 1.45501 9.87013 1.8934 9.87013Z" fill="#03787C"/>
<path d="M7.27127 19.5244C6.85354 19.2488 6.50485 18.8816 6.25199 18.451C6.0057 18.0012 5.88294 17.4948 5.89611 16.9828C5.87451 16.2898 6.10974 15.6132 6.55703 15.0816C7.02662 14.5491 7.63389 14.1548 8.31287 13.9416C9.08681 13.6879 9.89747 13.5628 10.7123 13.5714C11.7837 13.5322 12.8537 13.6813 13.873 14.0119V16.2327C13.43 15.9656 12.9475 15.7695 12.4433 15.6516C11.896 15.5176 11.3342 15.4505 10.7706 15.4517C10.1766 15.4303 9.58638 15.5544 9.05191 15.8132C8.85018 15.8999 8.6783 16.0434 8.55737 16.226C8.43643 16.4085 8.37171 16.6223 8.37115 16.8409C8.36866 17.1117 8.4723 17.3728 8.66007 17.5688C8.88315 17.7987 9.14666 17.9861 9.43755 18.1216C9.76326 18.2828 10.2493 18.4966 10.8958 18.7631C10.9676 18.7855 11.0376 18.8131 11.1054 18.8458C11.7431 19.0942 12.3583 19.3963 12.9443 19.7489C13.3884 20.0212 13.7612 20.3946 14.0318 20.8383C14.3104 21.3404 14.4463 21.9085 14.4248 22.4817C14.4565 23.1933 14.2377 23.8936 13.8061 24.4619C13.3753 24.9841 12.7996 25.3685 12.1507 25.5673C11.3878 25.8056 10.5916 25.921 9.79219 25.9091C9.07669 25.9119 8.36228 25.8533 7.65691 25.7339C7.0598 25.6396 6.4767 25.4722 5.92091 25.2355V22.8888C6.45267 23.2666 7.04698 23.5485 7.67675 23.7216C8.30253 23.9161 8.95316 24.02 9.60867 24.0301C10.2157 24.0686 10.8218 23.9406 11.3608 23.6599C11.5446 23.5549 11.6965 23.4023 11.8002 23.2183C11.9039 23.0343 11.9556 22.8258 11.9498 22.6149C11.951 22.4666 11.9225 22.3194 11.8659 22.1821C11.8092 22.0448 11.7256 21.9202 11.62 21.8155C11.3536 21.5559 11.0455 21.3425 10.7086 21.1838C10.3208 20.9897 9.74796 20.7347 8.98991 20.4188C8.38856 20.1783 7.81283 19.8786 7.27127 19.5244Z" fill="white"/>
</g>
<defs>
<clipPath id="clip0">
<rect width="40" height="39.4805" fill="white"/>
</clipPath>
</defs>
</svg>
