<svg width="40" height="39" viewBox="0 0 40 39" fill="none" xmlns="http://www.w3.org/2000/svg">
<path d="M21.1283 12.9874C24.2961 12.9874 26.8641 10.4434 26.8641 7.3052C26.8641 4.16699 24.2961 1.62297 21.1283 1.62297C17.9606 1.62297 15.3926 4.16699 15.3926 7.3052C15.3926 10.4434 17.9606 12.9874 21.1283 12.9874Z" fill="#7B83EB"/>
<path opacity="0.1" d="M20.7191 8.52273H15.5241L15.5499 8.63596L15.5524 8.6457L15.5794 8.75041C15.9569 10.1685 16.8727 11.3873 18.1357 12.1523C19.3987 12.9173 20.9112 13.1694 22.3573 12.8559V10.1457C22.356 9.71566 22.183 9.30359 21.8761 8.9995C21.5691 8.69542 21.1532 8.52401 20.7191 8.52273Z" fill="black"/>
<path opacity="0.2" d="M19.4901 9.74026H15.9456C16.4108 10.7119 17.1447 11.5328 18.0622 12.1076C18.9796 12.6824 20.0428 12.9875 21.1283 12.9874V11.3632C21.127 10.9332 20.954 10.5211 20.647 10.217C20.3401 9.91295 19.9241 9.74154 19.4901 9.74026Z" fill="black"/>
<path d="M34.0328 13.3929C36.4085 13.3929 38.3343 11.485 38.3343 9.13149C38.3343 6.77801 36.4085 4.87013 34.0328 4.87013C31.6572 4.87013 29.7313 6.77801 29.7313 9.13149C29.7313 11.485 31.6572 13.3929 34.0328 13.3929Z" fill="#5059C9"/>
<path d="M37.7198 14.6104H28.0586C27.85 14.6104 27.65 14.6925 27.5025 14.8386C27.355 14.9847 27.2721 15.1829 27.2721 15.3896V25.2638C27.2455 26.6929 27.7153 28.0876 28.6028 29.2145C29.4904 30.3413 30.7418 31.1319 32.1475 31.4537C33.0428 31.6398 33.9688 31.6258 34.8579 31.4127C35.7471 31.1995 36.577 30.7926 37.2874 30.2216C37.9978 29.6506 38.5707 28.9298 38.9644 28.1117C39.3581 27.2937 39.5627 26.399 39.5633 25.4927V16.4367C39.5633 15.9523 39.3691 15.4878 39.0234 15.1453C38.6776 14.8028 38.2087 14.6104 37.7198 14.6104Z" fill="#5059C9"/>
<path d="M30.9603 16.4367V28.0032C30.9615 30.1468 30.2485 32.2308 28.9319 33.9318C27.6153 35.6328 25.7688 36.8557 23.6789 37.4108C21.589 37.9659 19.3726 37.822 17.3736 37.0016C15.3747 36.1812 13.705 34.73 12.6236 32.8734C12.3871 32.484 12.1817 32.0769 12.0091 31.6558C11.8483 31.2588 11.7128 30.8522 11.6036 30.4383C11.401 29.6421 11.2978 28.8243 11.2963 28.0032V16.4367C11.296 16.1968 11.3435 15.9591 11.436 15.7374C11.5285 15.5157 11.6643 15.3142 11.8356 15.1446C12.0068 14.9749 12.2102 14.8404 12.434 14.7487C12.6578 14.6571 12.8976 14.6101 13.1398 14.6104H29.1168C29.359 14.6101 29.5989 14.6571 29.8227 14.7487C30.0465 14.8404 30.2498 14.9749 30.4211 15.1446C30.5923 15.3142 30.7281 15.5157 30.8207 15.7374C30.9132 15.9591 30.9606 16.1968 30.9603 16.4367Z" fill="#7B83EB"/>
<path opacity="0.2" d="M19.4901 9.74026H15.9456C16.4108 10.7119 17.1447 11.5328 18.0622 12.1076C18.9796 12.6824 20.0428 12.9875 21.1283 12.9874V11.3632C21.127 10.9332 20.954 10.5211 20.647 10.217C20.3401 9.91295 19.9241 9.74154 19.4901 9.74026Z" fill="black"/>
<path opacity="0.1" d="M22.3573 14.6104V30.0365C22.3573 30.4035 22.2305 30.7595 21.998 31.0453C21.7655 31.331 21.4412 31.5293 21.0792 31.6071C20.9635 31.6412 20.8434 31.6576 20.7227 31.6558H12.0091C11.8483 31.2588 11.7128 30.8522 11.6036 30.4383C11.401 29.6421 11.2978 28.8243 11.2963 28.0032V16.4367C11.296 16.1968 11.3435 15.9591 11.436 15.7374C11.5285 15.5157 11.6643 15.3142 11.8356 15.1446C12.0068 14.9749 12.2102 14.8404 12.434 14.7487C12.6578 14.6571 12.8976 14.6101 13.1398 14.6104H22.3573Z" fill="black"/>
<path opacity="0.2" d="M21.1283 14.6104V31.2541C21.1301 31.3735 21.1135 31.4926 21.0792 31.6071C21.0006 31.9658 20.8004 32.287 20.512 32.5174C20.2236 32.7478 19.8642 32.8734 19.4938 32.8734H12.6236C12.3871 32.484 12.1817 32.0769 12.0091 31.6558C11.8483 31.2588 11.7128 30.8522 11.6036 30.4383C11.401 29.6421 11.2978 28.8243 11.2963 28.0032V16.4367C11.296 16.1968 11.3435 15.9591 11.436 15.7374C11.5285 15.5157 11.6643 15.3142 11.8356 15.1446C12.0068 14.9749 12.2102 14.8404 12.434 14.7487C12.6578 14.6571 12.8976 14.6101 13.1398 14.6104H21.1283Z" fill="black"/>
<path opacity="0.2" d="M21.1283 14.6104V28.819C21.1264 29.2479 20.9535 29.6586 20.6474 29.9619C20.3413 30.2652 19.9267 30.4364 19.4938 30.4383H11.6036C11.401 29.6421 11.2978 28.8243 11.2963 28.0032V16.4367C11.296 16.1968 11.3435 15.9591 11.436 15.7374C11.5285 15.5157 11.6643 15.3142 11.8356 15.1446C12.0068 14.9749 12.2102 14.8404 12.434 14.7487C12.6578 14.6571 12.8976 14.6101 13.1398 14.6104H21.1283Z" fill="black"/>
<path opacity="0.2" d="M13.1398 14.6104C12.8976 14.6101 12.6578 14.6571 12.434 14.7487C12.2102 14.8404 12.0068 14.9749 11.8356 15.1446C11.6643 15.3142 11.5285 15.5157 11.436 15.7374C11.3435 15.9591 11.296 16.1968 11.2963 16.4367V28.0032C11.2978 28.8243 11.401 29.6421 11.6036 30.4383H18.2647C18.6977 30.4364 19.1123 30.2652 19.4184 29.9619C19.7245 29.6586 19.8974 29.2479 19.8993 28.819V14.6104H13.1398Z" fill="black"/>
<path d="M1.87358 9.74026H18.2611C18.6956 9.74026 19.1123 9.91125 19.4195 10.2156C19.7267 10.52 19.8993 10.9328 19.8993 11.3632V27.5978C19.8993 28.0282 19.7267 28.4411 19.4195 28.7454C19.1123 29.0498 18.6956 29.2208 18.2611 29.2208H1.87358C1.43908 29.2208 1.02239 29.0498 0.715153 28.7454C0.407921 28.4411 0.235319 28.0282 0.235319 27.5978L0.235319 11.3632C0.235319 10.9328 0.407921 10.52 0.715153 10.2156C1.02239 9.91125 1.43908 9.74026 1.87358 9.74026Z" fill="#4B53BC"/>
<path d="M14.9587 15.7975H11.284V25.5621H8.87274V15.7975H5.17591V13.3989H14.9587V15.7975Z" fill="white"/>
</svg>
