<svg width="24" height="24" viewBox="0 0 24 24" fill="none" xmlns="http://www.w3.org/2000/svg">
<path d="M19 0.999878L23 4.99988L19 8.99988" stroke="#5157B4" stroke-width="2" stroke-linecap="round" stroke-linejoin="round"/>
<path d="M15 4.99988H23" stroke="#5157B4" stroke-width="2" stroke-linecap="round" stroke-linejoin="round"/>
<path d="M22 16.9199V19.9199C22.0011 20.1984 21.9441 20.474 21.8325 20.7292C21.7209 20.9844 21.5573 21.2134 21.3521 21.4017C21.1468 21.59 20.9046 21.7333 20.6407 21.8226C20.3769 21.9118 20.0974 21.9449 19.82 21.9199C16.7428 21.5855 13.787 20.534 11.19 18.8499C8.77382 17.3145 6.72533 15.266 5.18999 12.8499C3.49997 10.2411 2.44824 7.27085 2.11999 4.17985C2.095 3.90332 2.12787 3.62461 2.21649 3.36148C2.30512 3.09834 2.44756 2.85654 2.63476 2.65147C2.82196 2.44641 3.0498 2.28256 3.30379 2.17037C3.55777 2.05819 3.83233 2.00011 4.10999 1.99985H7.10999C7.5953 1.99508 8.06579 2.16693 8.43376 2.48339C8.80173 2.79984 9.04207 3.2393 9.10999 3.71985C9.23662 4.67992 9.47144 5.62258 9.80999 6.52985C9.94454 6.88778 9.97366 7.27677 9.8939 7.65073C9.81415 8.0247 9.62886 8.36796 9.35999 8.63985L8.08999 9.90985C9.51355 12.4134 11.5864 14.4863 14.09 15.9099L15.36 14.6399C15.6319 14.371 15.9751 14.1857 16.3491 14.1059C16.7231 14.0262 17.1121 14.0553 17.47 14.1899C18.3773 14.5284 19.3199 14.7632 20.28 14.8899C20.7658 14.9584 21.2094 15.2031 21.5265 15.5773C21.8437 15.9516 22.0122 16.4294 22 16.9199Z" stroke="#5157B4" stroke-width="2" stroke-linecap="round" stroke-linejoin="round"/>
</svg>
