<svg width="60" height="61" viewBox="0 0 60 61" fill="none" xmlns="http://www.w3.org/2000/svg">
<path d="M20.7696 4.66846H6.92318C4.99985 4.66846 3.36536 5.3416 2.01894 6.68752C0.673147 8.03369 0 9.66818 0 11.5916V25.4375C0 27.3608 0.672768 28.9951 2.01894 30.341C3.36523 31.6868 5.00023 32.3602 6.92318 32.3602H15.0001C15.9613 32.3602 16.7788 32.6969 17.4519 33.3698C18.1251 34.0423 18.4615 34.86 18.4615 35.822V36.9752C18.4615 39.5235 17.5599 41.6982 15.7572 43.5015C13.9543 45.3038 11.7791 46.2053 9.23057 46.2053H6.92318C6.29778 46.2053 5.75711 46.4343 5.30018 46.8907C4.84363 47.3471 4.61516 47.8882 4.61516 48.5132V53.1291C4.61516 53.7531 4.84363 54.2952 5.30018 54.7517C5.75749 55.208 6.29765 55.4371 6.92318 55.4371H9.2307C11.7309 55.4371 14.1168 54.9496 16.3885 53.9764C18.6602 53.0031 20.6252 51.6866 22.2839 50.0278C23.9423 48.369 25.2585 46.4043 26.232 44.1326C27.2054 41.8609 27.6922 39.4752 27.6922 36.9753V11.5911C27.6922 9.66768 27.0191 8.03331 25.6732 6.68739C24.3273 5.34148 22.6924 4.66846 20.7696 4.66846Z" fill="#EDEDED"/>
<path d="M57.9801 6.68752C56.6343 5.3416 54.9997 4.66846 53.0764 4.66846H39.2305C37.3072 4.66846 35.6727 5.3416 34.3268 6.68752C32.981 8.03381 32.3081 9.66818 32.3081 11.5916V25.4375C32.3081 27.3608 32.981 28.9951 34.3268 30.341C35.6727 31.6868 37.3073 32.3602 39.2305 32.3602H47.3074C48.2686 32.3602 49.0868 32.6969 49.7598 33.3698C50.4322 34.0427 50.7694 34.86 50.7694 35.822V36.9752C50.7694 39.5235 49.8678 41.6982 48.0647 43.5015C46.2619 45.3038 44.0872 46.2053 41.5384 46.2053H39.2305C38.6056 46.2053 38.0645 46.4343 37.608 46.8907C37.1512 47.3471 36.9225 47.8882 36.9225 48.5132V53.1291C36.9225 53.7531 37.1512 54.2952 37.608 54.7517C38.0643 55.208 38.6055 55.4371 39.2305 55.4371H41.5384C44.0383 55.4371 46.424 54.9496 48.696 53.9764C50.9673 53.0031 52.932 51.6866 54.5909 50.0278C56.2496 48.369 57.5666 46.4038 58.5395 44.1326C59.5127 41.8614 59.9998 39.4752 59.9998 36.9753V11.5911C59.9994 9.66768 59.3269 8.03331 57.9801 6.68752Z" fill="#EDEDED"/>
</svg>
