<svg width="70" height="70" viewBox="0 0 70 70" fill="none" xmlns="http://www.w3.org/2000/svg">
<path d="M0 35C0 15.67 15.67 0 35 0H66C68.2091 0 70 1.79086 70 4V35C70 54.33 54.33 70 35 70C15.67 70 0 54.33 0 35Z" fill="#F7F7F7"/>
<path d="M33.9063 52.5001H21.5097C20.9059 52.5001 20.4159 52.0101 20.4159 51.4063V39.8301C20.4159 36.8223 21.7634 34.0179 24.115 32.141L27.5341 29.4066C28.0066 29.0326 28.6934 29.1048 29.0719 29.5773C29.4503 30.0498 29.3716 30.7366 28.9013 31.1151L25.48 33.8494C23.6513 35.3107 22.6034 37.4894 22.6034 39.8301V50.3126H32.8125V48.4926C32.8125 47.8888 33.3025 47.3988 33.9063 47.3988C35.3128 47.3988 36.4591 46.2547 36.4591 44.846V44.1132C36.4591 43.5094 36.9491 43.0194 37.5528 43.0194C38.1566 43.0194 38.6466 43.5094 38.6466 44.1132V44.846C38.6466 47.0838 37.0891 48.9629 35 49.4572V51.4041C35 52.0101 34.51 52.5001 33.9063 52.5001Z" fill="#5157B4"/>
<path opacity="0.5" d="M48.4903 21.875H46.6681V18.5938C46.6681 17.9966 46.1716 17.5 45.5744 17.5H30.9903C29.1812 17.5 27.7091 18.9722 27.7091 20.7812V36.6034L33.7181 31.0625C33.9959 30.7847 34.4466 30.8 34.7244 31.0778C35.4091 31.7625 35.7459 32.6528 35.7459 33.5431C35.7459 34.4334 35.4112 35.3216 34.7244 36.0084L32.0841 38.6487C32.4341 39.3487 32.6091 40.1209 32.6091 40.88C32.6091 42.0175 32.2153 43.155 31.4562 44.0738L30.6687 45.0625C31.0034 45.1653 31.3534 45.2091 31.7187 45.2091H48.4903C49.0875 45.2091 49.5841 44.7125 49.5841 44.1153V22.9688C49.5841 22.3716 49.0875 21.875 48.4903 21.875ZM44.4784 21.875H30.9881C30.3909 21.875 29.8944 21.3784 29.8944 20.7812C29.8944 20.1841 30.3909 19.6875 30.9881 19.6875H44.4784V21.875Z" fill="#5157B4"/>
<path d="M29.5816 46.4297C29.1091 46.0535 29.0281 45.3666 29.4044 44.8941L30.5987 43.3891C31.605 42.1816 31.7997 40.5191 31.1062 39.1366C30.8962 38.7166 30.9772 38.2069 31.3119 37.8744L33.95 35.2341C34.4006 34.7813 34.65 34.1819 34.65 33.5432C34.65 33.0225 34.4837 32.526 34.1797 32.1169L26.6284 39.0863C26.1844 39.4975 25.4909 39.4691 25.0841 39.025C24.6728 38.581 24.7012 37.8897 25.1453 37.4785L32.9722 30.2532C33.6962 29.5882 34.8031 29.61 35.4987 30.3057C36.3628 31.1697 36.8397 32.3204 36.8397 33.5432C36.8397 34.766 36.3628 35.9166 35.4987 36.7807L33.3769 38.9025C34.0616 40.8932 33.67 43.1222 32.2984 44.7694L31.1216 46.2525C30.7409 46.725 30.0562 46.806 29.5816 46.4297Z" fill="#5157B4"/>
</svg>
