<svg width="24" height="24" viewBox="0 0 24 24" fill="none" xmlns="http://www.w3.org/2000/svg">
<path d="M20 1.99988H4C2.89543 1.99988 2 2.89531 2 3.99988V7.99988C2 9.10445 2.89543 9.99988 4 9.99988H20C21.1046 9.99988 22 9.10445 22 7.99988V3.99988C22 2.89531 21.1046 1.99988 20 1.99988Z" stroke="#5157B4" stroke-width="2" stroke-linecap="round" stroke-linejoin="round"/>
<path d="M20 13.9999H4C2.89543 13.9999 2 14.8953 2 15.9999V19.9999C2 21.1044 2.89543 21.9999 4 21.9999H20C21.1046 21.9999 22 21.1044 22 19.9999V15.9999C22 14.8953 21.1046 13.9999 20 13.9999Z" stroke="#5157B4" stroke-width="2" stroke-linecap="round" stroke-linejoin="round"/>
<path d="M6 5.99988H6.01" stroke="#5157B4" stroke-width="2" stroke-linecap="round" stroke-linejoin="round"/>
<path d="M6 17.9999H6.01" stroke="#5157B4" stroke-width="2" stroke-linecap="round" stroke-linejoin="round"/>
</svg>
