<svg width="74" height="90" viewBox="0 0 74 90" fill="none" xmlns="http://www.w3.org/2000/svg">
<g clip-path="url(#clip0)">
<path d="M72.81 26.68C72.6216 26.053 72.3562 25.4518 72.02 24.89H4.16999C3.61233 24.864 3.05562 24.9586 2.53788 25.1674C2.02014 25.3763 1.55356 25.6944 1.16999 26.1C0.350279 27.0829 -0.0613103 28.3427 0.0199944 29.62C0.00752333 30.5105 0.132321 31.3975 0.389994 32.25C0.582862 32.9287 0.88699 33.5708 1.28999 34.15H19.91V84.15C19.91 86.04 20.36 87.39 21.28 88.15C22.6422 89.065 24.2743 89.4915 25.91 89.36C26.916 89.3683 27.9204 89.2812 28.91 89.1C29.6478 88.9806 30.3716 88.7862 31.07 88.52V34.12H42.07V84.12C42.0004 84.8458 42.0865 85.5782 42.3228 86.268C42.5591 86.9579 42.94 87.5893 43.44 88.12C44.35 88.93 45.9 89.33 48.07 89.33C49.076 89.3383 50.0804 89.2512 51.07 89.07C51.8078 88.9506 52.5316 88.7562 53.23 88.49V34.12H69.11C71.85 34.12 73.22 32.47 73.22 29.17C73.2033 28.3247 73.0652 27.4861 72.81 26.68Z" fill="#5157B4"/>
<path d="M48.17 18.26C49.9758 18.26 51.7409 17.7245 53.2424 16.7213C54.7438 15.7181 55.914 14.2922 56.605 12.6239C57.2961 10.9556 57.4769 9.11988 57.1246 7.34883C56.7723 5.57778 55.9027 3.95097 54.6259 2.67412C53.349 1.39727 51.7222 0.527718 49.9512 0.175435C48.1801 -0.176849 46.3444 0.00395578 44.6761 0.694984C43.0078 1.38601 41.5819 2.55623 40.5787 4.05765C39.5755 5.55907 39.04 7.32426 39.04 9.13C39.04 11.5514 40.0019 13.8737 41.7141 15.5859C43.4263 17.2981 45.7486 18.26 48.17 18.26Z" fill="#5157B4"/>
<path d="M25.66 18.27C30.7024 18.27 34.79 14.1824 34.79 9.13999C34.79 4.09763 30.7024 0.00999451 25.66 0.00999451C20.6176 0.00999451 16.53 4.09763 16.53 9.13999C16.53 14.1824 20.6176 18.27 25.66 18.27Z" fill="#5157B4"/>
</g>
<defs>
<clipPath id="clip0">
<rect width="73.21" height="89.36" fill="white"/>
</clipPath>
</defs>
</svg>
