<svg width="70" height="70" viewBox="0 0 70 70" fill="none" xmlns="http://www.w3.org/2000/svg">
<path d="M0 35C0 15.67 15.67 0 35 0H66C68.2091 0 70 1.79086 70 4V35C70 54.33 54.33 70 35 70C15.67 70 0 54.33 0 35Z" fill="#F7F7F7"/>
<path d="M44.1153 20.4159C44.7191 20.4159 45.2091 20.9059 45.2091 21.5097V48.4881C45.2091 49.0919 44.7191 49.5819 44.1153 49.5819H25.8869C25.2831 49.5819 24.7931 49.0919 24.7931 48.4881V21.5097C24.7931 20.9059 25.2831 20.4159 25.8869 20.4159H44.1153ZM44.1153 17.5H25.8869C23.6731 17.5 21.875 19.2981 21.875 21.5097V48.4881C21.875 50.7019 23.6731 52.5 25.8847 52.5H44.1131C46.3269 52.5 48.125 50.7019 48.125 48.4903V21.5097C48.125 19.2981 46.3269 17.5 44.1153 17.5Z" fill="#5157B4"/>
<path opacity="0.5" d="M36.4591 46.6659H27.8382C27.0332 46.6659 26.3791 46.0119 26.3791 45.2069C26.3791 44.4019 27.031 43.75 27.836 43.75H36.4569C37.2619 43.75 37.916 44.4041 37.916 45.2091C37.916 46.0141 37.2641 46.6659 36.4591 46.6659Z" fill="#5157B4"/>
<path opacity="0.5" d="M36.4591 31.9159H27.8382C27.0332 31.9159 26.3791 31.2619 26.3791 30.4569C26.3791 29.6519 27.031 29 27.836 29H36.4569C37.2619 29 37.916 29.6541 37.916 30.4591C37.916 31.2641 37.2641 31.9159 36.4591 31.9159Z" fill="#5157B4"/>
<path opacity="0.5" d="M42.2909 39.375H27.836C27.031 39.375 26.3769 38.721 26.3769 37.916C26.3769 37.111 27.0288 36.4569 27.836 36.4569H42.2909C43.0959 36.4569 43.75 37.111 43.75 37.916C43.75 38.721 43.0981 39.375 42.2909 39.375Z" fill="#5157B4"/>
</svg>
