<svg width="80" height="60" viewBox="0 0 80 60" fill="none" xmlns="http://www.w3.org/2000/svg">
<g clip-path="url(#clip0)">
<path d="M38.6077 15.9033C37.1085 15.9033 36.0609 17.8879 37.4647 19.0602L39.274 20.5429C39.6597 20.8556 39.9749 21.247 40.1987 21.6913C40.4225 22.1355 40.5499 22.6224 40.5724 23.1198C40.5949 23.6172 40.512 24.1137 40.3291 24.5765C40.1463 25.0393 39.8677 25.4578 39.5118 25.8043L37.4857 27.7858L35.4627 29.7704C35.1351 30.1036 34.9402 30.5456 34.9147 31.0132C34.9142 31.1861 34.9477 31.3573 35.0133 31.5172C35.0789 31.677 35.1754 31.8222 35.2971 31.9445C35.4188 32.0668 35.5634 32.1636 35.7225 32.2295C35.8816 32.2954 36.0522 32.3291 36.2243 32.3285C36.4569 32.3301 36.6861 32.2726 36.8906 32.1612L52.3622 23.3388L39.5359 16.1664C39.2563 15.9949 38.9352 15.9039 38.6077 15.9033Z" fill="#4285F4"/>
<path d="M53.5083 24.0083L52.3412 23.3633L36.8696 32.1857C35.9896 32.6876 34.8948 32.0657 34.8948 31.0618C34.8915 30.8272 34.9387 30.5946 35.0331 30.38C35.1274 30.1653 35.2668 29.9736 35.4417 29.818L35.6324 29.6276L35.4417 29.818C35.2761 29.9797 35.1445 30.1731 35.0545 30.3867C34.9646 30.6003 34.9181 30.8299 34.9179 31.0618C34.8948 32.0657 34.8707 33.9304 34.8707 35.532C34.8707 36.7758 36.2515 37.565 37.3463 36.9189L53.5313 27.6672C53.8549 27.4838 54.1238 27.2169 54.3102 26.894C54.4966 26.5712 54.5936 26.2041 54.5913 25.8309C54.5889 25.4577 54.4873 25.092 54.2968 24.7715C54.1064 24.4511 53.8342 24.1876 53.5083 24.0083Z" fill="#7CBB00"/>
<path d="M56.5066 17.8365L25.3498 0.291686C25.0664 0.132124 24.7464 0.049776 24.4216 0.0528156C23.9391 0.0514011 23.4756 0.241646 23.1321 0.582072C22.7887 0.922498 22.5932 1.3855 22.5882 1.87012C22.5898 3.40566 22.9327 4.92147 23.5917 6.30703C24.2507 7.69258 25.2092 8.91293 26.3974 9.87911L37.4176 19.0119C36.085 17.8407 37.1316 15.9035 38.6077 15.9035C38.9352 15.9041 39.2563 15.9951 39.5359 16.1665L52.3622 23.3632L56.5307 20.9934C56.8087 20.834 57.0393 20.603 57.1989 20.3244C57.3585 20.0457 57.4414 19.7294 57.4389 19.4079C57.4365 19.0864 57.3488 18.7714 57.185 18.4952C57.0211 18.219 56.787 17.9917 56.5066 17.8365Z" fill="#FFBB00"/>
<path d="M0.0240972 40.0985L2.83282 39.6187V43.3238H7.14073V45.6693H2.83282V50.6425C2.83282 51.6221 2.9753 52.3156 3.28436 52.747C3.59341 53.1785 4.12247 53.3689 4.85582 53.3689C5.31366 53.3779 5.77045 53.3216 6.21252 53.2016C6.52782 53.1148 6.83776 53.0094 7.14073 52.8859L7.61636 55.1336C7.19829 55.3058 6.76919 55.4496 6.33195 55.564C5.72467 55.7157 5.10015 55.7865 4.47448 55.7745C3.61751 55.7745 2.87997 55.6556 2.309 55.4167C1.77031 55.2066 1.29471 54.8605 0.928212 54.4118C0.582189 53.9335 0.339208 53.388 0.214768 52.8102C0.0643537 52.1031 -0.00593606 51.3812 0.00523963 50.6582V40.0985H0.0240972Z" fill="#4D4D4D"/>
<path d="M15.9042 45.8609C15.5923 45.7605 15.2742 45.6804 14.9519 45.621C14.4819 45.5277 14.0029 45.4878 13.524 45.5021C13.1961 45.4992 12.8688 45.5313 12.5476 45.5979C12.3005 45.6411 12.0557 45.697 11.8142 45.7652V55.5188H8.99713V43.9237C9.66132 43.6981 10.3365 43.5067 11.0201 43.3502C11.9134 43.1705 12.8225 43.0824 13.7335 43.0871C13.9482 43.0839 14.1629 43.092 14.3768 43.1113C14.6227 43.1309 14.8674 43.1629 15.1101 43.2071L15.8246 43.3502C16.0105 43.3828 16.1934 43.4307 16.3715 43.4933L15.9042 45.8609Z" fill="#4D4D4D"/>
<path d="M20.7318 39.7639C20.7318 40.29 20.5652 40.7204 20.232 41.0266C19.9023 41.3322 19.4662 41.4955 19.0178 41.4812C18.5632 41.4911 18.1215 41.3289 17.7805 41.0266C17.4474 40.7162 17.2808 40.29 17.2808 39.7639C17.2808 39.2132 17.4474 38.7828 17.7805 38.4727C18.1155 38.1655 18.5527 37.9951 19.0063 37.9951C19.4599 37.9951 19.8971 38.1655 20.232 38.4727C20.5652 38.7835 20.7318 39.2139 20.7318 39.7639ZM20.4175 55.5188H17.614V43.3259H20.4227L20.4175 55.5188Z" fill="#4D4D4D"/>
<path d="M23.0167 43.7092C23.5646 43.565 24.255 43.3935 25.135 43.2546C26.0877 43.1062 27.0509 43.0358 28.015 43.0441C29.0155 43.0441 29.8242 43.1872 30.4905 43.4503C31.1138 43.6845 31.6643 44.0803 32.0861 44.5973C32.4905 45.0761 32.7524 45.6738 32.9242 46.3672C33.0918 47.1122 33.1716 47.8744 33.162 48.6381V55.519H30.3481V49.1116C30.3513 48.5516 30.3114 47.9923 30.2286 47.4385C30.1343 46.9839 30.0191 46.6019 29.8001 46.3146C29.6134 46.0267 29.3377 45.8082 29.0155 45.6927C28.6823 45.5496 28.2821 45.5023 27.8012 45.5023C27.4272 45.5028 27.0535 45.5267 26.6824 45.5738C26.3021 45.6212 26.0161 45.6696 25.8254 45.6927V55.519H23.0167V43.7092Z" fill="#4D4D4D"/>
<path d="M39.6553 43.0156C40.5835 43.0156 41.3682 43.1345 41.9874 43.3745C42.6306 43.6133 43.1304 43.9238 43.5107 44.3541C43.8952 44.7941 44.1725 45.3179 44.3205 45.8842C44.4887 46.5236 44.5687 47.1833 44.5583 47.8446V55.2327C44.1298 55.3285 43.4635 55.4432 42.6065 55.5673C41.6294 55.7094 40.6426 55.7735 39.6553 55.7588C38.9828 55.7661 38.3118 55.6955 37.6554 55.5484C37.101 55.4279 36.5754 55.1998 36.108 54.877C35.6767 54.5628 35.3326 54.143 35.1086 53.6574C34.8707 53.1555 34.7513 52.5578 34.7513 51.817C34.7361 51.2026 34.8751 50.5942 35.1557 50.0481C35.4169 49.5709 35.7938 49.1677 36.2515 48.8758C36.7412 48.5513 37.2922 48.3317 37.8701 48.2308C38.4951 48.0927 39.1339 48.0277 39.7737 48.0371C40.088 48.0371 40.417 48.0614 40.7501 48.0845C41.1181 48.1294 41.4835 48.1933 41.8449 48.276V47.8267C41.8434 47.5118 41.8033 47.1983 41.7255 46.8933C41.6491 46.6043 41.5111 46.3354 41.3211 46.1051C41.1123 45.8716 40.8513 45.6912 40.5594 45.579C40.1785 45.4419 39.776 45.3753 39.3714 45.3822C38.7748 45.3791 38.179 45.427 37.5904 45.5253C37.1359 45.591 36.6894 45.7035 36.2578 45.861L35.9006 43.5649C36.2578 43.446 36.7806 43.326 37.4479 43.1829C38.1791 43.0772 38.9166 43.0213 39.6553 43.0156ZM39.8649 53.5385C40.7218 53.5385 41.3881 53.4901 41.8407 53.3944V50.2596C41.6214 50.1996 41.399 50.1518 41.1744 50.1165C40.5431 50.021 39.9011 50.021 39.2698 50.1165C38.9734 50.164 38.685 50.2525 38.4128 50.3795C38.1662 50.5006 37.9534 50.6814 37.7937 50.9057C37.6271 51.1214 37.5559 51.4087 37.5559 51.7665C37.5559 52.4368 37.7706 52.8903 38.175 53.1534C38.6077 53.3912 39.1546 53.5354 39.869 53.5354L39.8649 53.5385Z" fill="#4D4D4D"/>
<path d="M57.9587 49.4233C57.9687 50.2893 57.8479 51.1518 57.6004 51.9814C57.3812 52.7066 57.0345 53.3866 56.5768 53.9891C56.124 54.5546 55.5451 55.0051 54.887 55.3045C54.1694 55.63 53.3894 55.7931 52.6021 55.7822C52.0709 55.7893 51.5415 55.7184 51.0306 55.5718C50.6177 55.4608 50.2204 55.2982 49.8478 55.0877V59.823H47.0339V43.7093C47.6048 43.5652 48.3193 43.3936 49.1522 43.2547C50.0254 43.1097 50.9093 43.0393 51.7944 43.0443C52.6725 43.027 53.5456 43.181 54.3653 43.4978C55.0946 43.767 55.7537 44.1987 56.2929 44.7606C56.8411 45.3376 57.2626 46.0237 57.5302 46.7746C57.826 47.6256 57.971 48.522 57.9587 49.4233ZM55.1028 49.4706C55.1028 48.2037 54.8172 47.2236 54.2458 46.5305C53.6749 45.8371 52.7697 45.4782 51.5084 45.4782C51.2464 45.4782 50.9615 45.4782 50.6702 45.5024C50.3812 45.5265 50.0945 45.5744 49.8133 45.6455V52.6506C50.1163 52.8525 50.4446 53.0132 50.7897 53.1284C51.2109 53.272 51.6533 53.3432 52.0982 53.3388C53.1217 53.3388 53.8593 52.98 54.3359 52.2865C54.865 51.5983 55.1028 50.6429 55.1028 49.4706Z" fill="#4D4D4D"/>
<path d="M62.9811 53.4872C63.7144 53.4872 64.2665 53.3914 64.5997 53.2241C64.9328 53.0568 65.0994 52.7463 65.0994 52.2918C65.0994 51.8856 64.9087 51.5552 64.5525 51.2879C64.1963 51.0206 63.6002 50.7375 62.7432 50.4271C62.2435 50.2356 61.7668 50.0451 61.3384 49.8294C60.9407 49.637 60.5721 49.389 60.2436 49.0928C59.9402 48.8055 59.6916 48.4649 59.5102 48.0879C59.3281 47.6241 59.2391 47.1288 59.2483 46.6304C59.2483 45.5066 59.6527 44.6216 60.4866 43.9766C61.2954 43.3304 62.4143 43.02 63.8181 43.02C64.5048 43.022 65.19 43.0861 65.8652 43.2115C66.3567 43.3081 66.8417 43.4357 67.3172 43.5935L66.8175 45.8886C65.9144 45.5063 64.9414 45.3192 63.9616 45.3393C63.3896 45.3393 62.914 45.435 62.5809 45.6255C62.4148 45.7093 62.2768 45.84 62.1838 46.0015C62.0907 46.163 62.0466 46.3483 62.057 46.5347C62.0498 46.715 62.0824 46.8946 62.1524 47.0608C62.2292 47.2346 62.3529 47.3834 62.5096 47.4901C62.7182 47.647 62.9414 47.7833 63.1759 47.8974C63.5088 48.0531 63.8505 48.1887 64.1995 48.3036C64.7791 48.5092 65.3438 48.7554 65.8893 49.0402C66.3115 49.2459 66.6967 49.5208 67.0291 49.8536C67.3231 50.1435 67.5505 50.4943 67.6954 50.8817C67.8472 51.3357 67.9181 51.813 67.905 52.2918C67.905 53.4633 67.4765 54.3479 66.6195 54.9456C65.7625 55.5433 64.5242 55.8538 62.9308 55.8538C61.859 55.8538 61.0021 55.759 60.3599 55.5917C59.8909 55.478 59.4297 55.3342 58.9791 55.1614L59.4557 52.8179C59.9459 53.0099 60.4477 53.1705 60.9581 53.2988C61.6248 53.4265 62.3023 53.4896 62.9811 53.4872Z" fill="#4D4D4D"/>
<path d="M69.0511 49.4704C69.0361 48.5086 69.1974 47.5523 69.5267 46.6492C69.8003 45.8984 70.2287 45.2142 70.7839 44.6414C71.3001 44.1179 71.9152 43.7032 72.5932 43.4218C73.2609 43.1585 73.9712 43.0208 74.6885 43.0156C76.3553 43.0156 77.6638 43.5418 78.592 44.5699C79.5212 45.6221 79.9969 47.1753 79.9969 49.2315V49.7576C79.9969 49.9492 79.9728 50.1165 79.9728 50.2838H71.9782C72.0495 51.2635 72.4067 52.0285 73.0018 52.5546C73.6209 53.0808 74.502 53.368 75.668 53.368C76.2919 53.3707 76.9142 53.3065 77.5244 53.1765C77.9809 53.0866 78.4273 52.9512 78.857 52.7725L79.2384 55.0875C79.0318 55.1872 78.8164 55.2675 78.5951 55.3274C78.2921 55.43 77.9818 55.5099 77.6669 55.5663C77.3107 55.6378 76.9535 55.6852 76.5491 55.7336C76.1381 55.7817 75.7246 55.8056 75.3108 55.8052C74.2401 55.8052 73.3119 55.6378 72.5261 55.3274C71.7815 55.0379 71.1136 54.5794 70.5744 53.9878C70.0663 53.4001 69.678 52.718 69.4314 51.9801C69.165 51.1709 69.0365 50.3225 69.0511 49.4704ZM77.1913 48.2076C77.1981 47.8343 77.1417 47.4624 77.0247 47.108C76.9242 46.778 76.7629 46.47 76.5491 46.1999C76.3456 45.9432 76.0846 45.7384 75.7874 45.6022C75.436 45.4559 75.0587 45.3826 74.6783 45.3865C74.2978 45.3905 73.9221 45.4717 73.5738 45.6253C73.256 45.7851 72.9715 46.0044 72.7357 46.2714C72.5111 46.5421 72.334 46.8492 72.2118 47.1795C72.088 47.5201 72.0002 47.8728 71.9499 48.2318H77.1881L77.1913 48.2076Z" fill="#4D4D4D"/>
</g>
<defs>
<clipPath id="clip0">
<rect width="80" height="59.7701" fill="white" transform="translate(0 0.0527344)"/>
</clipPath>
</defs>
</svg>
