<svg width="24" height="24" viewBox="0 0 24 24" fill="none" xmlns="http://www.w3.org/2000/svg">
<path d="M17 20.9999V18.9999C17 17.939 16.5786 16.9216 15.8284 16.1715C15.0783 15.4213 14.0609 14.9999 13 14.9999H5C3.93913 14.9999 2.92172 15.4213 2.17157 16.1715C1.42143 16.9216 1 17.939 1 18.9999V20.9999" stroke="#5157B4" stroke-width="2" stroke-linecap="round" stroke-linejoin="round"/>
<path d="M9 10.9999C11.2091 10.9999 13 9.20902 13 6.99988C13 4.79074 11.2091 2.99988 9 2.99988C6.79086 2.99988 5 4.79074 5 6.99988C5 9.20902 6.79086 10.9999 9 10.9999Z" stroke="#5157B4" stroke-width="2" stroke-linecap="round" stroke-linejoin="round"/>
<path d="M23 20.9999V18.9999C22.9993 18.1136 22.7044 17.2527 22.1614 16.5522C21.6184 15.8517 20.8581 15.3515 20 15.1299" stroke="#5157B4" stroke-width="2" stroke-linecap="round" stroke-linejoin="round"/>
<path d="M16 3.12988C16.8604 3.35018 17.623 3.85058 18.1676 4.55219C18.7122 5.2538 19.0078 6.11671 19.0078 7.00488C19.0078 7.89305 18.7122 8.75596 18.1676 9.45757C17.623 10.1592 16.8604 10.6596 16 10.8799" stroke="#5157B4" stroke-width="2" stroke-linecap="round" stroke-linejoin="round"/>
</svg>
